<?xml version="1.0" standalone="no"?>
<!DOCTYPE svg PUBLIC "-//W3C//DTD SVG 20010904//EN"
 "http://www.w3.org/TR/2001/REC-SVG-20010904/DTD/svg10.dtd">
<svg version="1.0" xmlns="http://www.w3.org/2000/svg"
 width="801.000000pt" height="630.000000pt" viewBox="0 0 801.000000 630.000000"
 preserveAspectRatio="xMidYMid meet">

<g transform="translate(0.000000,630.000000) scale(0.100000,-0.100000)"
fill="#F5F5F5" stroke="none">
<path d="M1618 6280 c-70 -12 -142 -38 -183 -66 -20 -13 -40 -24 -46 -24 -17
0 -98 -81 -132 -133 -37 -56 -77 -155 -77 -189 0 -18 4 -17 39 15 50 45 119
70 296 106 136 28 215 58 215 82 0 30 -97 85 -200 113 -44 12 -49 15 -24 15
49 1 115 -23 174 -62 30 -21 64 -37 76 -37 32 0 59 36 59 80 0 94 -58 123
-197 100z"/>
<path d="M1814 6248 c28 -40 18 -125 -19 -162 -17 -16 -16 -19 6 -42 46 -49
52 -48 136 12 43 31 88 61 101 67 12 6 22 14 22 18 0 4 -30 28 -67 52 -64 42
-145 77 -179 77 -13 0 -13 -2 0 -22z"/>
<path d="M1999 6072 c-90 -64 -119 -88 -119 -98 0 -5 15 -24 32 -43 l30 -34
50 18 c31 11 64 16 89 12 44 -6 111 -37 117 -55 2 -7 -18 -1 -44 13 -57 30
-131 34 -163 8 -20 -18 -20 -18 35 -113 67 -116 88 -182 82 -261 -4 -57 -4
-58 15 -41 61 55 123 272 96 339 -7 15 -11 40 -10 55 1 15 -8 51 -19 82 -22
59 -96 166 -114 166 -6 -1 -41 -22 -77 -48z"/>
<path d="M1736 6035 c-29 -22 -127 -52 -266 -80 -217 -46 -300 -99 -300 -193
0 -68 25 -157 65 -230 19 -34 35 -74 35 -88 0 -13 11 -52 25 -85 18 -44 24
-78 23 -120 -1 -41 5 -73 20 -106 12 -27 46 -162 77 -301 70 -315 107 -447
145 -519 28 -51 47 -108 64 -185 13 -56 38 -63 281 -68 414 -9 519 -5 625 23
52 14 149 50 216 81 66 30 134 58 151 62 29 6 32 3 64 -57 19 -35 60 -91 92
-125 32 -34 54 -65 49 -68 -5 -3 -23 -34 -40 -69 -42 -84 -42 -134 -3 -179 15
-18 31 -51 35 -73 4 -21 17 -57 29 -80 18 -33 23 -63 28 -180 5 -123 9 -147
32 -199 l27 -58 -23 -18 c-12 -10 -28 -35 -35 -56 -30 -89 -32 -92 -70 -99
-80 -15 -134 -58 -189 -150 -20 -33 -53 -79 -74 -102 -38 -41 -50 -71 -69
-174 -8 -42 -23 -72 -55 -114 -59 -75 -73 -121 -51 -163 23 -44 20 -58 -13
-72 -27 -11 -40 -31 -56 -87 -3 -13 -10 -23 -15 -23 -22 0 -184 -159 -214
-210 -19 -30 -55 -109 -80 -175 -26 -66 -58 -144 -72 -174 -35 -74 -116 -200
-153 -235 l-30 -28 -103 26 c-182 46 -297 32 -478 -59 -38 -19 -81 -35 -95
-35 -13 0 -53 -11 -87 -24 -35 -13 -114 -38 -176 -56 l-113 -33 -62 60 c-34
34 -81 71 -105 83 -83 41 -175 37 -236 -11 -60 -48 -186 -263 -186 -319 0 -30
-98 -154 -132 -165 -51 -18 -107 -85 -153 -180 -53 -111 -69 -177 -69 -280 1
-89 24 -158 72 -209 51 -54 134 -72 182 -40 68 45 167 163 298 354 67 98 184
199 231 201 14 0 62 20 106 42 68 36 83 49 102 85 31 61 40 70 86 83 29 8 57
8 101 -1 34 -6 122 -13 196 -15 112 -3 156 -9 255 -35 101 -26 150 -33 315
-42 107 -5 210 -9 229 -9 42 2 84 24 137 70 41 36 199 121 225 121 7 0 23 -10
35 -21 l23 -21 40 33 c48 41 197 136 238 151 27 10 41 6 144 -44 64 -31 144
-80 184 -112 38 -31 75 -56 82 -56 7 0 40 -20 75 -43 35 -24 126 -81 203 -127
160 -96 223 -140 315 -220 88 -77 103 -85 206 -121 171 -58 267 -49 323 32 14
21 33 38 42 39 36 0 88 86 114 185 8 32 15 97 15 142 0 53 5 92 14 106 24 39
39 267 33 488 -6 206 -20 317 -67 511 -11 46 -32 198 -46 338 -28 280 -34 316
-64 350 -25 29 -25 44 1 87 17 27 19 37 9 48 -10 12 -5 25 23 67 74 113 156
304 201 468 58 214 75 587 42 907 l-19 183 55 92 c31 51 59 106 63 123 3 16
25 48 49 71 49 50 99 64 161 44 26 -8 144 -15 345 -19 l305 -6 91 -43 c102
-47 165 -62 265 -62 46 0 87 -7 121 -20 40 -16 136 -29 393 -55 367 -37 421
-45 533 -77 l72 -21 74 -97 c41 -53 77 -106 80 -117 3 -11 36 -45 73 -77 62
-53 68 -57 80 -40 22 30 15 77 -18 129 -30 47 -31 52 -23 110 9 59 9 60 39 57
17 -2 68 -20 115 -39 92 -38 139 -45 164 -24 33 28 18 47 -69 90 -47 23 -85
46 -85 50 0 5 35 -1 78 -14 152 -44 232 -42 248 8 9 28 -11 40 -90 56 -37 7
-68 17 -71 21 -2 4 40 9 95 12 111 6 150 22 150 63 0 24 -3 25 -67 26 -64 1
-66 2 -29 10 48 11 66 25 66 52 0 19 -4 19 -67 13 -166 -17 -291 -25 -324 -20
-19 3 -73 -2 -120 -11 -127 -26 -212 -24 -279 8 -36 17 -88 30 -150 37 -94 12
-120 20 -295 98 -247 109 -575 190 -864 212 -75 6 -174 18 -221 26 -152 27
-204 34 -265 34 -49 0 -72 7 -135 39 -127 66 -207 86 -345 86 -104 0 -133 -4
-214 -29 -108 -33 -194 -32 -240 1 -14 11 -34 22 -43 26 -27 10 -25 74 2 82
11 3 21 12 22 18 0 7 2 17 2 22 1 6 10 23 21 38 16 25 17 33 6 63 -11 30 -10
37 9 62 31 42 30 90 -3 117 -25 20 -26 22 -10 38 16 16 16 18 -2 31 -20 14
-20 15 4 40 23 24 23 26 7 50 -9 14 -23 58 -31 98 -18 86 -49 141 -106 192
-109 99 -284 129 -473 80 -132 -34 -212 -97 -268 -212 -29 -59 -33 -76 -33
-152 0 -71 5 -96 29 -155 50 -119 48 -330 -5 -491 l-20 -62 -69 0 c-78 -1 -97
-9 -158 -64 -35 -32 -49 -39 -70 -34 -68 14 -270 18 -323 6 -93 -21 -194 -76
-267 -144 l-67 -63 -120 -12 c-171 -17 -244 -37 -373 -104 -63 -32 -118 -57
-122 -55 -5 2 -42 50 -82 108 -41 58 -97 137 -126 175 -70 96 -240 492 -226
528 4 11 17 13 48 10 37 -5 47 -1 78 26 49 43 72 102 108 282 34 167 58 234
96 270 31 29 30 39 -9 77 l-32 31 -60 -44 c-97 -73 -216 -187 -352 -336 -119
-131 -143 -153 -143 -129 0 27 349 378 495 497 l39 33 -34 35 c-38 40 -38 40
-64 20z m1871 -4800 c23 -40 31 -109 14 -119 -10 -6 -271 85 -271 95 0 7 201
68 220 66 8 -1 25 -20 37 -42z"/>
<path d="M1896 5825 c-26 -27 -44 -87 -82 -260 -31 -142 -55 -207 -95 -257
l-30 -38 38 0 c97 0 277 73 331 135 56 63 50 167 -19 315 -59 126 -97 155
-143 105z"/>
</g>
</svg>
