<svg width="250" height="38" viewBox="0 0 250 38" fill="none" xmlns="http://www.w3.org/2000/svg">
<path opacity="0.886" fill-rule="evenodd" clip-rule="evenodd" d="M242.006 10.164C242.67 10.164 243.333 10.164 243.997 10.164C244.076 11.2233 244.645 11.5552 245.703 11.1593C246.176 10.2676 246.935 9.9357 247.978 10.164C248.113 12.1859 247.165 13.039 245.134 12.7233C243.135 12.9966 242.092 12.1435 242.006 10.164Z" fill="#2356B1"/>
<path opacity="0.906" fill-rule="evenodd" clip-rule="evenodd" d="M234.899 12.7271C235.467 12.7271 236.036 12.7271 236.605 12.7271C236.559 13.2102 236.607 13.6842 236.747 14.1489C237.221 13.8645 237.695 13.5802 238.169 13.2958C239.217 14.3198 239.075 15.1254 237.742 15.7129C239.138 16.2711 239.233 16.982 238.027 17.8456C236.918 16.9385 236.444 17.2229 236.605 18.6987C236.036 18.6987 235.467 18.6987 234.899 18.6987C235.051 17.2951 234.625 17.0107 233.619 17.8456C232.224 16.8811 232.366 16.1702 234.046 15.7129C232.301 15.2059 232.159 14.4003 233.619 13.2958C234.708 14.6204 235.135 14.4307 234.899 12.7271Z" fill="#2356B1"/>
<path opacity="0.69" fill-rule="evenodd" clip-rule="evenodd" d="M225.511 13.5949C224.504 13.5059 223.556 13.6009 222.667 13.8792C222.513 13.8622 222.418 13.7675 222.383 13.5949C223.468 13.2229 224.51 13.2229 225.511 13.5949Z" fill="#2356B1"/>
<path opacity="0.753" fill-rule="evenodd" clip-rule="evenodd" d="M229.21 13.5949C230.211 13.2229 231.253 13.2229 232.338 13.5949C232.303 13.7675 232.208 13.8622 232.054 13.8792C231.165 13.6009 230.217 13.5059 229.21 13.5949Z" fill="#2356B1"/>
<path opacity="0.983" fill-rule="evenodd" clip-rule="evenodd" d="M202.483 13.5898C202.483 14.822 202.483 16.0544 202.483 17.2866C204 17.2866 205.516 17.2866 207.033 17.2866C207.033 16.0544 207.033 14.822 207.033 13.5898C207.791 13.5898 208.549 13.5898 209.308 13.5898C209.308 17.0022 209.308 20.4146 209.308 23.827C208.549 23.827 207.791 23.827 207.033 23.827C207.033 22.4052 207.033 20.9834 207.033 19.5615C205.516 19.5615 204 19.5615 202.483 19.5615C202.483 20.9834 202.483 22.4052 202.483 23.827C201.725 23.827 200.967 23.827 200.208 23.827C200.208 20.4146 200.208 17.0022 200.208 13.5898C200.967 13.5898 201.725 13.5898 202.483 13.5898Z" fill="#2356B1"/>
<path opacity="0.961" fill-rule="evenodd" clip-rule="evenodd" d="M222.666 13.8367C223.554 13.5583 224.502 13.4634 225.509 13.5524C226.119 14.3864 226.735 15.2395 227.358 16.1117C227.98 15.2395 228.596 14.3864 229.206 13.5524C230.213 13.4634 231.161 13.5583 232.05 13.8367C231.139 15.3268 230.19 16.7961 229.206 18.2444C230.306 20.0174 231.444 21.7711 232.618 23.5052C231.588 23.8348 230.546 23.882 229.49 23.6474C228.744 22.6771 228.034 21.6818 227.358 20.6615C226.682 21.6818 225.971 22.6771 225.225 23.6474C223.424 23.8371 221.623 23.8371 219.822 23.6474C219.566 23.0241 219.282 22.4081 218.969 21.799C217.461 21.4683 215.944 21.4211 214.419 21.6568C213.93 23.6317 212.697 24.2477 210.722 23.5052C212.239 20.1875 213.756 16.8701 215.272 13.5524C216.22 13.1733 217.168 13.1733 218.116 13.5524C219.559 16.7023 221.029 19.8303 222.523 22.9365C223.556 21.4871 224.551 20.0177 225.509 18.5288C224.596 16.9378 223.648 15.3737 222.666 13.8367ZM216.409 16.396C217.154 17.2668 217.723 18.262 218.116 19.3819C217.168 19.5716 216.22 19.5716 215.272 19.3819C215.792 18.4366 216.171 17.4414 216.409 16.396Z" fill="#2356B1"/>
<path opacity="0.933" fill-rule="evenodd" clip-rule="evenodd" d="M247.404 13.5524C248.162 13.5524 248.92 13.5524 249.679 13.5524C249.679 16.9648 249.679 20.3772 249.679 23.7896C248.92 23.7896 248.162 23.7896 247.404 23.7896C247.451 21.7021 247.404 19.6168 247.261 17.5336C245.792 19.5716 244.323 21.6094 242.854 23.6474C241.911 23.7891 240.963 23.8365 240.01 23.7896C240.01 20.2825 240.01 16.7752 240.01 13.2681C240.958 13.2681 241.906 13.2681 242.854 13.2681C242.807 15.2609 242.854 17.2515 242.996 19.2398C244.402 17.2731 245.871 15.3772 247.404 13.5524Z" fill="#2356B1"/>
<path opacity="0.753" fill-rule="evenodd" clip-rule="evenodd" d="M247.406 13.5745C248.199 13.2967 249.052 13.202 249.965 13.2902C250.059 16.8479 249.964 20.3553 249.681 23.8117C249.681 20.3993 249.681 16.9869 249.681 13.5745C248.923 13.5745 248.164 13.5745 247.406 13.5745Z" fill="#2356B1"/>
<path fill-rule="evenodd" clip-rule="evenodd" d="M202.483 13.5745C201.724 13.5745 200.966 13.5745 200.208 13.5745C200.208 16.9869 200.208 20.3993 200.208 23.8117C199.925 20.3553 199.83 16.8479 199.923 13.2902C200.837 13.202 201.69 13.2967 202.483 13.5745Z" fill="#2356B1"/>
<path opacity="0.753" fill-rule="evenodd" clip-rule="evenodd" d="M207.024 13.5745C207.816 13.2967 208.669 13.202 209.583 13.2902C209.676 16.8479 209.581 20.3553 209.298 23.8117C209.298 20.3993 209.298 16.9869 209.298 13.5745C208.54 13.5745 207.782 13.5745 207.024 13.5745Z" fill="#2356B1"/>
<path opacity="0.954" fill-rule="evenodd" clip-rule="evenodd" d="M156.677 6.80225C158.338 6.80281 159.523 7.56122 160.231 9.07718C160.374 15.617 160.421 22.1575 160.374 28.6985C159.141 28.6985 157.909 28.6985 156.677 28.6985C156.677 21.3996 156.677 14.1011 156.677 6.80225Z" fill="#2356B1"/>
<path opacity="0.968" fill-rule="evenodd" clip-rule="evenodd" d="M172.319 0C173.725 0.810159 174.815 1.94762 175.589 3.41239C179.44 11.6235 181.004 20.2491 180.281 29.2897C181.703 29.2897 183.125 29.2897 184.547 29.2897C184.056 31.9457 183.25 34.505 182.129 36.9676C180.782 37.2431 179.408 37.3381 178.006 37.2519C178.323 35.7795 178.892 34.4052 179.712 33.1286C174.973 32.939 170.234 32.939 165.494 33.1286C166.314 34.4052 166.883 35.7795 167.2 37.2519C165.964 37.2991 164.732 37.2517 163.503 37.1098C162.622 36.088 162.006 34.9034 161.655 33.5552C161.277 32.1396 160.946 30.7178 160.66 29.2897C162.082 29.2897 163.503 29.2897 164.925 29.2897C164.202 20.2503 165.766 11.6243 169.617 3.41239C170.452 2.21464 171.352 1.07718 172.319 0ZM176.869 23.6024C176.939 24.5803 176.844 25.5281 176.584 26.446C176.551 27.4015 176.457 28.3493 176.3 29.2897C173.835 29.2897 171.371 29.2897 168.906 29.2897C168.008 21.3115 169.193 13.6336 172.461 6.25605C174.349 9.9184 175.581 13.8045 176.158 17.9151C176.395 19.8257 176.632 21.7216 176.869 23.6024Z" fill="#2356B1"/>
<path opacity="0.956" fill-rule="evenodd" clip-rule="evenodd" d="M187.669 6.80225C187.953 6.80225 188.238 6.80225 188.522 6.80225C188.522 14.1011 188.522 21.3996 188.522 28.6985C187.29 28.6985 186.058 28.6985 184.825 28.6985C184.778 22.1575 184.825 15.617 184.968 9.07718C185.582 7.93829 186.483 7.18017 187.669 6.80225Z" fill="#2356B1"/>
<path opacity="0.502" fill-rule="evenodd" clip-rule="evenodd" d="M137.348 3.00828C136.779 3.00828 136.211 3.00828 135.642 3.00828C135.642 3.29265 135.642 3.57701 135.642 3.86138C135.376 3.55779 135.281 3.17861 135.357 2.72391C136.085 2.63815 136.749 2.73295 137.348 3.00828Z" fill="#2A5BB4"/>
<path opacity="0.188" fill-rule="evenodd" clip-rule="evenodd" d="M50.62 3.28602C50.0197 2.93295 49.4509 2.93295 48.9138 3.28602C48.7593 3.26896 48.6647 3.17418 48.6294 3.00165C48.9612 2.90687 49.2928 2.81206 49.6247 2.71729C50.1027 2.74808 50.4345 2.93764 50.62 3.28602Z" fill="#2A5BB4"/>
<path opacity="0.914" fill-rule="evenodd" clip-rule="evenodd" d="M48.9094 3.2926C49.4466 2.93953 50.0153 2.93953 50.6156 3.2926C51.4881 4.11723 52.2465 4.02242 52.8906 3.00823C53.5284 2.7312 54.1918 2.63639 54.8811 2.72386C54.7881 4.71124 53.7454 5.56434 51.7531 5.28315C50.1663 5.44379 49.2182 4.78028 48.9094 3.2926Z" fill="#2A5BB4"/>
<path opacity="0.924" fill-rule="evenodd" clip-rule="evenodd" d="M135.639 3.85813C135.639 3.57376 135.639 3.28939 135.639 3.00503C136.208 3.00503 136.777 3.00503 137.345 3.00503C138.168 4.17477 138.926 4.12739 139.62 2.86284C140.181 2.72194 140.75 2.67457 141.326 2.72066C141.512 3.91005 141.039 4.71577 139.905 5.13777C138.862 5.32736 137.819 5.32736 136.777 5.13777C136.137 4.92521 135.757 4.49866 135.639 3.85813Z" fill="#2A5BB4"/>
<path opacity="0.251" fill-rule="evenodd" clip-rule="evenodd" d="M11.9414 5.86585C11.0277 5.7777 10.1746 5.87248 9.38214 6.15022C9.2277 6.13316 9.13293 6.03838 9.09778 5.86585C10.0873 5.49458 11.0352 5.49458 11.9414 5.86585Z" fill="#2A5BB4"/>
<path opacity="0.251" fill-rule="evenodd" clip-rule="evenodd" d="M17.3452 5.86534C18.1572 5.49476 19.0102 5.49476 19.9045 5.86534C19.8692 6.03787 19.7746 6.13264 19.6201 6.14971C18.924 5.87299 18.1657 5.77821 17.3452 5.86534Z" fill="#2A5BB4"/>
<path opacity="0.251" fill-rule="evenodd" clip-rule="evenodd" d="M38.1016 5.86585C39.0078 5.49458 39.9556 5.49458 40.9452 5.86585C40.91 6.03838 40.8153 6.13316 40.6609 6.15022C39.8683 5.87248 39.0152 5.7777 38.1016 5.86585Z" fill="#2A5BB4"/>
<path fill-rule="evenodd" clip-rule="evenodd" d="M5.11859 5.87441C3.50717 5.87441 1.89578 5.87441 0.284366 5.87441C0.284366 9.28681 0.284366 12.6992 0.284366 16.1116C1.04269 16.1116 1.80098 16.1116 2.55929 16.1116C1.76679 16.3894 0.913697 16.4841 0 16.396C0 12.794 0 9.19203 0 5.59004C1.76023 5.49822 3.46642 5.593 5.11859 5.87441Z" fill="#2A5BB4"/>
<path opacity="0.981" fill-rule="evenodd" clip-rule="evenodd" d="M5.11706 5.8501C8.95831 6.42162 10.0484 8.50699 8.38728 12.1062C6.66072 13.3787 4.71756 13.8527 2.55777 13.528C2.55777 14.3811 2.55777 15.2342 2.55777 16.0873C1.79945 16.0873 1.04116 16.0873 0.282837 16.0873C0.282837 12.6749 0.282837 9.26249 0.282837 5.8501C1.89426 5.8501 3.50565 5.8501 5.11706 5.8501ZM2.55777 7.84066C3.63077 7.77335 4.67342 7.91553 5.6858 8.26721C6.86947 9.3561 6.77469 10.304 5.40143 11.1109C4.45824 11.2526 3.51037 11.3 2.55777 11.2531C2.55777 10.1156 2.55777 8.97812 2.55777 7.84066Z" fill="#2A5BB4"/>
<path opacity="0.965" fill-rule="evenodd" clip-rule="evenodd" d="M11.9422 5.8678C12.7193 7.51658 13.5724 9.12797 14.5015 10.702C15.5286 9.11944 16.4765 7.50805 17.3452 5.8678C18.1657 5.78067 18.924 5.87545 19.6201 6.15216C18.2308 9.02523 16.7616 11.8689 15.2124 14.6832C13.8061 16.5275 12.0525 17.0014 9.95167 16.105C10.258 15.471 10.4475 14.8075 10.5204 14.1144C11.5857 14.66 12.4388 14.423 13.0797 13.4035C11.7734 11.0119 10.5412 8.59479 9.38293 6.15216C10.1754 5.87442 11.0285 5.77964 11.9422 5.8678Z" fill="#2A5BB4"/>
<path opacity="0.963" fill-rule="evenodd" clip-rule="evenodd" d="M23.8816 5.54777C25.7928 5.33487 27.5937 5.66661 29.2845 6.54305C29.6221 6.83296 29.9064 7.1647 30.1376 7.53833C29.5689 8.01228 29.0002 8.48621 28.4314 8.96016C26.2557 7.26124 24.4074 7.54561 22.8863 9.81326C22.3497 13.0683 23.7243 14.4427 27.0096 13.9366C27.5229 13.6602 27.9969 13.3284 28.4314 12.9413C29.0428 13.4102 29.6116 13.9316 30.1376 14.5053C27.0301 17.3415 23.9495 17.2941 20.8957 14.3631C18.9307 10.3518 19.926 7.4133 23.8816 5.54777Z" fill="#2A5BB4"/>
<path opacity="0.977" fill-rule="evenodd" clip-rule="evenodd" d="M34.1285 9.56455C34.5397 9.88102 35.0137 9.92843 35.5503 9.70673C36.4452 8.43295 37.2983 7.1533 38.1096 5.8678C39.0233 5.77964 39.8764 5.87442 40.6689 6.15216C39.8082 7.82204 38.7657 9.38606 37.5409 10.8442C38.7847 12.5251 39.9222 14.2787 40.9533 16.105C40.0194 16.434 39.0714 16.4814 38.1096 16.2471C37.2008 15.0062 36.3477 13.7265 35.5503 12.4082C35.0388 12.042 34.565 12.042 34.1285 12.4082C33.8484 13.5839 33.7537 14.8161 33.8441 16.105C33.0857 16.105 32.3276 16.105 31.5692 16.105C31.5692 12.6926 31.5692 9.28019 31.5692 5.8678C32.3276 5.8678 33.0857 5.8678 33.8441 5.8678C33.7537 7.15663 33.8484 8.38887 34.1285 9.56455Z" fill="#2A5BB4"/>
<path opacity="0.851" fill-rule="evenodd" clip-rule="evenodd" d="M41.7985 5.58252C42.7463 5.58252 43.6943 5.58252 44.6421 5.58252C44.6421 9.1845 44.6421 12.7864 44.6421 16.3884C43.6943 16.3884 42.7463 16.3884 41.7985 16.3884C41.7985 12.7864 41.7985 9.1845 41.7985 5.58252Z" fill="#2A5BB4"/>
<path opacity="0.989" fill-rule="evenodd" clip-rule="evenodd" d="M56.5863 16.1117C55.8279 16.1117 55.0698 16.1117 54.3114 16.1117C54.4032 14.257 54.3085 12.456 54.027 10.7087C54.0643 10.4986 54.0168 10.309 53.8848 10.14C52.4155 12.178 50.9465 14.2159 49.4771 16.2539C48.6292 16.3955 47.7761 16.4428 46.9178 16.396C46.9178 12.8889 46.9178 9.38168 46.9178 5.87451C47.6763 5.87451 48.4344 5.87451 49.1928 5.87451C49.1009 7.72917 49.1956 9.53015 49.4771 11.2775C49.5553 11.9434 49.7922 11.9434 50.1881 11.2775C51.4125 9.43696 52.6922 7.63599 54.027 5.87451C54.8596 5.59467 55.7127 5.49989 56.5863 5.59015C56.5863 9.09731 56.5863 12.6045 56.5863 16.1117Z" fill="#2A5BB4"/>
<path opacity="0.98" fill-rule="evenodd" clip-rule="evenodd" d="M68.5266 5.86687C70.5134 5.67259 71.7456 6.52569 72.2233 8.42617C72.0769 9.34829 71.6978 10.154 71.0859 10.8433C71.7021 11.0803 72.1286 11.5068 72.3655 12.1229C73.0159 14.3593 72.21 15.6863 69.9484 16.1041C67.7682 16.1041 65.5882 16.1041 63.408 16.1041C63.408 12.6917 63.408 9.27927 63.408 5.86687C65.1142 5.86687 66.8204 5.86687 68.5266 5.86687ZM65.9673 7.85744C66.9199 7.81052 67.8677 7.85792 68.8109 7.99962C69.6188 8.89788 69.4291 9.56142 68.2422 9.99019C67.4898 10.1316 66.7314 10.179 65.9673 10.1324C65.9673 9.37405 65.9673 8.61576 65.9673 7.85744ZM65.9673 11.8386C67.1346 11.7629 68.2721 11.9051 69.3797 12.2651C70.1875 13.1634 69.9979 13.8269 68.8109 14.2557C67.8677 14.3974 66.9199 14.4448 65.9673 14.3979C65.9673 13.5448 65.9673 12.6917 65.9673 11.8386Z" fill="#2A5BB4"/>
<path opacity="0.975" fill-rule="evenodd" clip-rule="evenodd" d="M77.6329 5.58363C84.0943 5.43303 86.2271 8.3715 84.0312 14.399C81.2242 16.9922 78.2384 17.2292 75.0737 15.1099C72.6685 12.0973 72.8582 9.25361 75.6424 6.57891C76.332 6.23409 76.9957 5.90232 77.6329 5.58363ZM78.486 7.85856C80.8699 7.67466 82.1967 8.76473 82.4672 11.1288C82.0264 13.5616 80.6046 14.5094 78.2017 13.9724C76.233 12.9085 75.7118 11.3445 76.6377 9.2804C77.1509 8.61904 77.7672 8.14512 78.486 7.85856Z" fill="#2A5BB4"/>
<path opacity="0.954" fill-rule="evenodd" clip-rule="evenodd" d="M89.8586 5.57605C92.0183 5.25136 93.9614 5.72532 95.6881 6.99788C95.7646 7.78836 95.4327 8.40447 94.6928 8.84626C93.6836 8.53804 92.6408 8.20627 91.5648 7.85098C90.2584 8.06531 89.3106 8.77622 88.7211 9.98372C90.1398 10.1257 91.5616 10.1731 92.9866 10.1259C92.9866 10.7894 92.9866 11.453 92.9866 12.1165C91.6461 12.0236 90.3192 12.1184 89.0055 12.4008C89.7556 13.9819 90.9878 14.5033 92.7022 13.9648C93.2155 13.6884 93.6895 13.3567 94.1241 12.9696C96.2355 13.8375 96.3302 14.8328 94.4084 15.9554C92.3141 16.8294 90.2285 16.7347 88.1524 15.671C85.3756 12.8914 85.1862 9.9529 87.5837 6.8557C88.3227 6.34526 89.0811 5.91871 89.8586 5.57605Z" fill="#2A5BB4"/>
<path opacity="0.973" fill-rule="evenodd" clip-rule="evenodd" d="M99.815 5.8501C99.815 7.17715 99.815 8.50417 99.815 9.83122C101.331 9.83122 102.848 9.83122 104.365 9.83122C104.365 8.50417 104.365 7.17715 104.365 5.8501C105.123 5.8501 105.881 5.8501 106.64 5.8501C106.64 9.26249 106.64 12.6749 106.64 16.0873C105.881 16.0873 105.123 16.0873 104.365 16.0873C104.365 14.7602 104.365 13.4332 104.365 12.1062C102.848 12.1062 101.331 12.1062 99.815 12.1062C99.815 13.4332 99.815 14.7602 99.815 16.0873C99.0566 16.0873 98.2984 16.0873 97.54 16.0873C97.54 12.6749 97.54 9.26249 97.54 5.8501C98.2984 5.8501 99.0566 5.8501 99.815 5.8501Z" fill="#2A5BB4"/>
<path opacity="0.753" fill-rule="evenodd" clip-rule="evenodd" d="M104.355 5.87433C105.148 5.59659 106.001 5.50181 106.915 5.58997C106.915 9.19194 106.915 12.7939 106.915 16.3959C106.001 16.484 105.148 16.3892 104.355 16.1115C105.114 16.1115 105.872 16.1115 106.63 16.1115C106.63 12.6991 106.63 9.28672 106.63 5.87433C105.872 5.87433 105.114 5.87433 104.355 5.87433Z" fill="#2A5BB4"/>
<path opacity="0.251" fill-rule="evenodd" clip-rule="evenodd" d="M112.045 9.56364C111.764 8.38796 111.67 7.15572 111.76 5.86689C111.002 5.86689 110.244 5.86689 109.485 5.86689C109.485 9.27927 109.485 12.6917 109.485 16.1041C110.244 16.1041 111.002 16.1041 111.76 16.1041C111.67 14.8152 111.764 13.583 112.045 12.4073C112.045 13.7343 112.045 15.0614 112.045 16.3884C111.097 16.3884 110.149 16.3884 109.201 16.3884C109.201 12.7864 109.201 9.1845 109.201 5.58252C110.149 5.58252 111.097 5.58252 112.045 5.58252C112.045 6.90957 112.045 8.23659 112.045 9.56364Z" fill="#2A5BB4"/>
<path opacity="0.923" fill-rule="evenodd" clip-rule="evenodd" d="M112.041 12.4073C111.76 13.583 111.666 14.8152 111.756 16.1041C110.998 16.1041 110.24 16.1041 109.481 16.1041C109.481 12.6917 109.481 9.27927 109.481 5.86689C110.24 5.86689 110.998 5.86689 111.756 5.86689C111.666 7.15572 111.76 8.38796 112.041 9.56364C113.407 9.84437 114.829 9.93915 116.306 9.84801C116.306 8.42618 116.306 7.00435 116.306 5.58252C117.254 5.58252 118.202 5.58252 119.15 5.58252C119.15 9.1845 119.15 12.7864 119.15 16.3884C118.202 16.3884 117.254 16.3884 116.306 16.3884C116.306 14.9666 116.306 13.5448 116.306 12.1229C114.829 12.0318 113.407 12.1266 112.041 12.4073Z" fill="#2A5BB4"/>
<path opacity="0.972" fill-rule="evenodd" clip-rule="evenodd" d="M131.096 16.1082C130.337 16.1082 129.579 16.1082 128.821 16.1082C128.913 14.2536 128.818 12.4526 128.536 10.7053C128.574 10.4952 128.526 10.3056 128.394 10.1366C126.925 12.1745 125.456 14.2125 123.986 16.2504C123.138 16.392 122.285 16.4394 121.427 16.3926C121.427 12.8854 121.427 9.37824 121.427 5.87106C122.186 5.87106 122.944 5.87106 123.702 5.87106C123.61 7.72573 123.705 9.52671 123.986 11.274C124.065 11.94 124.302 11.94 124.697 11.274C125.962 9.34542 127.337 7.49704 128.821 5.72888C129.573 5.58744 130.332 5.54003 131.096 5.5867C131.096 9.09387 131.096 12.6011 131.096 16.1082Z" fill="#2A5BB4"/>
<path opacity="0.753" fill-rule="evenodd" clip-rule="evenodd" d="M121.427 5.87433C122.22 5.59659 123.073 5.50181 123.986 5.58997C123.986 7.48574 123.986 9.3815 123.986 11.2773C123.705 9.52996 123.61 7.72899 123.702 5.87433C122.944 5.87433 122.186 5.87433 121.427 5.87433Z" fill="#2A5BB4"/>
<path opacity="0.967" fill-rule="evenodd" clip-rule="evenodd" d="M136.213 5.8501C136.166 7.84291 136.213 9.83347 136.355 11.8218C137.786 9.77927 139.255 7.78871 140.763 5.8501C141.522 5.8501 142.28 5.8501 143.038 5.8501C143.038 9.26249 143.038 12.6749 143.038 16.0873C142.28 16.0873 141.522 16.0873 140.763 16.0873C140.81 14.0945 140.763 12.1039 140.621 10.1156C139.2 12.1514 137.73 14.142 136.213 16.0873C135.455 16.0873 134.697 16.0873 133.938 16.0873C133.938 12.6749 133.938 9.26249 133.938 5.8501C134.697 5.8501 135.455 5.8501 136.213 5.8501Z" fill="#2356B1"/>
<path opacity="0.753" fill-rule="evenodd" clip-rule="evenodd" d="M140.759 5.87433C141.551 5.59659 142.405 5.50181 143.318 5.58997C143.318 9.19194 143.318 12.7939 143.318 16.3959C142.405 16.484 141.551 16.3892 140.759 16.1115C141.517 16.1115 142.275 16.1115 143.034 16.1115C143.034 12.6991 143.034 9.28672 143.034 5.87433C142.275 5.87433 141.517 5.87433 140.759 5.87433Z" fill="#2A5BB4"/>
<path opacity="0.502" fill-rule="evenodd" clip-rule="evenodd" d="M34.1277 9.56364C33.8476 8.38796 33.7529 7.15572 33.8433 5.86689C33.0849 5.86689 32.3268 5.86689 31.5684 5.86689C31.5684 9.27927 31.5684 12.6917 31.5684 16.1041C32.3268 16.1041 33.0849 16.1041 33.8433 16.1041C33.7529 14.8152 33.8476 13.583 34.1277 12.4073C34.1277 13.7343 34.1277 15.0614 34.1277 16.3884C33.1799 16.3884 32.2318 16.3884 31.2841 16.3884C31.2841 12.7864 31.2841 9.1845 31.2841 5.58252C32.2318 5.58252 33.1799 5.58252 34.1277 5.58252C34.1277 6.90957 34.1277 8.23659 34.1277 9.56364Z" fill="#2A5BB4"/>
<path opacity="0.753" fill-rule="evenodd" clip-rule="evenodd" d="M46.9178 5.87433C47.7104 5.59659 48.5635 5.50181 49.4771 5.58997C49.4771 7.48574 49.4771 9.3815 49.4771 11.2773C49.1956 9.52996 49.1009 7.72899 49.1928 5.87433C48.4344 5.87433 47.6763 5.87433 46.9178 5.87433Z" fill="#2A5BB4"/>
<path fill-rule="evenodd" clip-rule="evenodd" d="M136.213 5.87433C135.454 5.87433 134.696 5.87433 133.938 5.87433C133.938 9.28672 133.938 12.6991 133.938 16.1115C134.696 16.1115 135.454 16.1115 136.213 16.1115C135.42 16.3892 134.567 16.484 133.653 16.3959C133.653 12.7939 133.653 9.19194 133.653 5.58997C134.567 5.50181 135.42 5.59659 136.213 5.87433Z" fill="#2A5BB4"/>
<path opacity="0.502" fill-rule="evenodd" clip-rule="evenodd" d="M68.5293 5.8745C66.8231 5.8745 65.1169 5.8745 63.4107 5.8745C63.4107 9.28689 63.4107 12.6993 63.4107 16.1117C65.5909 16.1117 67.7709 16.1117 69.9511 16.1117C67.7285 16.3939 65.4536 16.4886 63.1263 16.396C63.1263 12.7941 63.1263 9.19211 63.1263 5.59013C64.981 5.49814 66.7819 5.59292 68.5293 5.8745Z" fill="#2A5BB4"/>
<path opacity="0.753" fill-rule="evenodd" clip-rule="evenodd" d="M99.8143 5.87433C99.0559 5.87433 98.2978 5.87433 97.5394 5.87433C97.5394 9.28672 97.5394 12.6991 97.5394 16.1115C98.2978 16.1115 99.0559 16.1115 99.8143 16.1115C99.0218 16.3892 98.1687 16.484 97.255 16.3959C97.255 12.7939 97.255 9.19194 97.255 5.58997C98.1687 5.50181 99.0218 5.59659 99.8143 5.87433Z" fill="#2A5BB4"/>
<path opacity="0.502" fill-rule="evenodd" clip-rule="evenodd" d="M54.0299 10.709C54.3114 12.4563 54.4061 14.2573 54.3143 16.1119C55.0727 16.1119 55.8308 16.1119 56.5892 16.1119C55.7967 16.3897 54.9436 16.4844 54.0299 16.3963C54.0299 14.5005 54.0299 12.6048 54.0299 10.709Z" fill="#2A5BB4"/>
<path opacity="0.502" fill-rule="evenodd" clip-rule="evenodd" d="M128.527 10.709C128.809 12.4563 128.904 14.2573 128.812 16.1119C129.57 16.1119 130.328 16.1119 131.087 16.1119C130.294 16.3897 129.441 16.4844 128.527 16.3963C128.527 14.5005 128.527 12.6048 128.527 10.709Z" fill="#2A5BB4"/>
<path opacity="0.251" fill-rule="evenodd" clip-rule="evenodd" d="M38.6704 20.6549C39.5767 20.2836 40.5245 20.2836 41.5141 20.6549C41.4788 20.8274 41.3841 20.9222 41.2297 20.9393C40.4372 20.6615 39.5841 20.5668 38.6704 20.6549Z" fill="#2A5BB4"/>
<path opacity="0.243" fill-rule="evenodd" clip-rule="evenodd" d="M99.2407 20.6683C100.033 20.3905 100.886 20.2958 101.8 20.3839C101.8 21.5214 101.8 22.6588 101.8 23.7963C101.521 22.8119 101.426 21.7692 101.516 20.6683C100.757 20.6683 99.9991 20.6683 99.2407 20.6683Z" fill="#2A5BB4"/>
<path opacity="0.978" fill-rule="evenodd" clip-rule="evenodd" d="M34.6937 24.0649C34.7765 24.3916 35.0133 24.5812 35.4046 24.6336C35.6415 24.5862 35.8787 24.5388 36.1155 24.4914C37.0067 23.2281 37.8598 21.9484 38.6748 20.6525C39.5885 20.5643 40.4416 20.6591 41.2341 20.9368C40.3537 22.5313 39.4057 24.0953 38.3905 25.6289C39.4111 27.5028 40.5485 29.3037 41.8029 31.0318C40.7601 31.2215 39.7176 31.2215 38.6748 31.0318C37.7865 29.7766 36.9334 28.497 36.1155 27.1929C35.604 26.8266 35.1302 26.8266 34.6937 27.1929C34.4136 28.3685 34.3189 29.6009 34.4093 30.8896C33.6509 30.8896 32.8928 30.8896 32.1344 30.8896C32.1344 27.4773 32.1344 24.0649 32.1344 20.6525C32.8928 20.6525 33.6509 20.6525 34.4093 20.6525C34.3192 21.8473 34.4142 22.9847 34.6937 24.0649Z" fill="#2A5BB4"/>
<path opacity="0.967" fill-rule="evenodd" clip-rule="evenodd" d="M45.7835 20.3388C51.2747 19.9048 53.6918 22.3693 53.0349 27.7323C51.4129 30.8026 48.9011 31.8926 45.4992 31.0025C42.3291 29.7342 41.1444 27.4121 41.9446 24.0355C42.639 22.1554 43.9187 20.9231 45.7835 20.3388ZM46.6366 22.6137C49.577 22.5674 50.8566 23.9892 50.4756 26.8792C49.4035 28.8453 47.8395 29.3666 45.7835 28.4432C43.7651 26.1421 44.0495 24.1989 46.6366 22.6137Z" fill="#2A5BB4"/>
<path opacity="0.94" fill-rule="evenodd" clip-rule="evenodd" d="M54.8802 20.3816C57.1702 20.3035 59.4452 20.4457 61.705 20.8082C64.2006 22.134 64.8165 24.0772 63.5534 26.6377C62.8874 27.563 61.9868 28.0845 60.8519 28.2017C59.8134 28.3436 58.7709 28.3908 57.7239 28.3439C57.7239 29.2917 57.7239 30.2397 57.7239 31.1875C56.7761 31.1875 55.828 31.1875 54.8802 31.1875C54.8802 27.5855 54.8802 23.9836 54.8802 20.3816ZM57.7239 22.6566C58.9922 22.4816 60.1296 22.766 61.1363 23.5097C61.6826 24.6241 61.3982 25.43 60.2832 25.9268C59.4352 26.0684 58.5821 26.1159 57.7239 26.069C57.7239 24.9315 57.7239 23.794 57.7239 22.6566Z" fill="#2A5BB4"/>
<path opacity="0.963" fill-rule="evenodd" clip-rule="evenodd" d="M75.3628 30.3303C74.6553 30.8672 73.8022 31.0569 72.8035 30.899C72.4924 30.2985 72.208 29.6822 71.9504 29.0507C70.425 28.8149 68.9082 28.8621 67.4005 29.1928C67.0874 29.802 66.803 30.4179 66.5474 31.0412C65.5857 31.2755 64.6376 31.2281 63.7037 30.899C65.2336 27.3979 66.8451 23.9383 68.538 20.5197C69.4064 20.2861 70.2595 20.3335 71.0973 20.6618C72.5225 23.8908 73.9443 27.1136 75.3628 30.3303ZM69.3911 23.7899C69.6402 23.7527 69.8298 23.8475 69.9598 24.0742C70.3022 24.9954 70.6815 25.8959 71.0973 26.7757C70.1495 26.9654 69.2014 26.9654 68.2536 26.7757C68.774 25.8305 69.1531 24.8353 69.3911 23.7899Z" fill="#2A5BB4"/>
<path opacity="0.987" fill-rule="evenodd" clip-rule="evenodd" d="M79.6255 22.6248C79.3502 23.2241 79.2552 23.8876 79.3411 24.6154C80.9552 24.5682 82.5667 24.6156 84.1753 24.7576C85.8989 25.6002 86.5151 26.9748 86.0237 28.8809C85.567 30.1298 84.6667 30.7933 83.3222 30.8715C81.237 30.8715 79.1514 30.8715 77.0662 30.8715C77.0662 27.4591 77.0662 24.0467 77.0662 20.6343C79.7202 20.6343 82.3744 20.6343 85.0284 20.6343C85.0284 21.203 85.0284 21.7717 85.0284 22.3405C83.1738 22.2485 81.3729 22.3433 79.6255 22.6248ZM79.3411 26.606C80.4825 26.5588 81.62 26.6062 82.7535 26.7481C83.6032 27.7545 83.4135 28.5126 82.1848 29.0231C81.2415 29.1647 80.2937 29.2122 79.3411 29.1653C79.3411 28.3122 79.3411 27.4591 79.3411 26.606Z" fill="#2A5BB4"/>
<path opacity="0.954" fill-rule="evenodd" clip-rule="evenodd" d="M96.9736 20.6343C96.9736 24.0467 96.9736 27.4591 96.9736 30.8715C96.2152 30.8715 95.4571 30.8715 94.6987 30.8715C94.7916 28.071 94.697 25.3223 94.4143 22.6248C93.2768 22.6248 92.1394 22.6248 91.0019 22.6248C91.2223 25.3957 90.7957 28.05 89.7222 30.5871C89.5314 30.8009 89.2946 30.8959 89.0113 30.8715C88.2529 30.8715 87.4948 30.8715 86.7364 30.8715C86.6468 30.1005 86.8365 29.4371 87.3051 28.8809C87.8483 28.4615 88.1798 27.8927 88.3004 27.1747C88.3505 25.9838 88.4926 24.8464 88.727 23.7623C89.0062 22.7779 89.1009 21.7352 89.0113 20.6343C91.6653 20.6343 94.3196 20.6343 96.9736 20.6343Z" fill="#2A5BB4"/>
<path opacity="0.972" fill-rule="evenodd" clip-rule="evenodd" d="M99.2407 20.6343C99.9991 20.6343 100.757 20.6343 101.516 20.6343C101.426 21.7352 101.521 22.7779 101.8 23.7623C103.647 23.6673 105.448 23.9043 107.203 24.4732C107.643 24.8184 107.975 25.245 108.198 25.7529C108.968 28.433 108.067 30.1864 105.497 31.0137C103.414 31.1558 101.328 31.203 99.2407 31.1558C99.2407 27.6487 99.2407 24.1415 99.2407 20.6343ZM101.8 26.0372C102.847 25.9903 103.89 26.0375 104.928 26.1794C106.149 27.3681 105.959 28.3159 104.359 29.0231C103.511 29.1647 102.658 29.2122 101.8 29.1653C101.8 28.1225 101.8 27.08 101.8 26.0372Z" fill="#2A5BB4"/>
<path opacity="0.251" fill-rule="evenodd" clip-rule="evenodd" d="M34.693 24.0732C34.4135 22.9931 34.3185 21.8556 34.4087 20.6608C33.6503 20.6608 32.8921 20.6608 32.1337 20.6608C32.1337 24.0732 32.1337 27.4856 32.1337 30.898C32.8921 30.898 33.6503 30.898 34.4087 30.898C34.3182 29.6093 34.4129 28.3768 34.693 27.2012C34.693 28.5284 34.693 29.8552 34.693 31.1824C33.7452 31.1824 32.7972 31.1824 31.8494 31.1824C31.8494 27.5803 31.8494 23.9784 31.8494 20.3765C32.7972 20.3765 33.7452 20.3765 34.693 20.3765C34.693 21.6087 34.693 22.841 34.693 24.0732Z" fill="#2A5BB4"/>
<path opacity="0.938" fill-rule="evenodd" clip-rule="evenodd" d="M96.9732 20.6207C94.3192 20.6207 91.6649 20.6207 89.0109 20.6207C89.1005 21.7216 89.0058 22.7643 88.7266 23.7487C88.7266 22.6112 88.7266 21.4738 88.7266 20.3363C91.527 20.2433 94.2757 20.3381 96.9732 20.6207Z" fill="#2A5BB4"/>
<path opacity="0.753" fill-rule="evenodd" clip-rule="evenodd" d="M79.6239 22.6514C81.3714 22.3698 83.1722 22.275 85.0269 22.367C85.0269 21.7983 85.0269 21.2296 85.0269 20.6608C82.3729 20.6608 79.7186 20.6608 77.0646 20.6608C77.0646 24.0732 77.0646 27.4856 77.0646 30.898C79.1499 30.898 81.2354 30.898 83.3207 30.898C81.1931 31.1801 79.0131 31.2748 76.7803 31.1824C76.7803 27.5803 76.7803 23.9784 76.7803 20.3765C79.6239 20.3765 82.4676 20.3765 85.3112 20.3765C85.3112 21.1348 85.3112 21.8931 85.3112 22.6514C83.4154 22.6514 81.5198 22.6514 79.6239 22.6514Z" fill="#2A5BB4"/>
<path fill-rule="evenodd" clip-rule="evenodd" d="M94.4067 22.6377C94.6894 25.3352 94.7841 28.0839 94.6911 30.8843C95.4495 30.8843 96.2076 30.8843 96.966 30.8843C96.1735 31.1621 95.3204 31.2568 94.4067 31.1687C94.4067 28.325 94.4067 25.4814 94.4067 22.6377Z" fill="#2A5BB4"/>
<path opacity="0.929" fill-rule="evenodd" clip-rule="evenodd" d="M110.905 33.1731C110.431 33.1731 109.958 33.1731 109.484 33.1731C109.484 32.8888 109.484 32.6044 109.484 32.32C109.85 31.4868 109.707 30.8234 109.057 30.3295C108.939 28.2698 109.84 27.6539 111.759 28.4811C112.224 30.1657 111.939 31.7297 110.905 33.1731Z" fill="#2A5BB4"/>
<path opacity="0.627" fill-rule="evenodd" clip-rule="evenodd" d="M87.2976 28.9043C86.8289 29.4605 86.6392 30.1239 86.7288 30.8949C87.4872 30.8949 88.2453 30.8949 89.0038 30.8949C88.2112 31.1727 87.3581 31.2674 86.4445 31.1792C86.4445 30.4208 86.4445 29.6627 86.4445 28.9043C86.7288 28.9043 87.0132 28.9043 87.2976 28.9043Z" fill="#2A5BB4"/>
<path opacity="0.502" fill-rule="evenodd" clip-rule="evenodd" d="M75.3581 30.3027C75.6152 30.5044 75.7099 30.7887 75.6425 31.1558C74.6353 31.2448 73.6875 31.1499 72.7988 30.8715C73.7975 31.0293 74.6506 30.8396 75.3581 30.3027Z" fill="#2A5BB4"/>
<path opacity="0.502" fill-rule="evenodd" clip-rule="evenodd" d="M109.484 32.3057C109.484 32.59 109.484 32.8744 109.484 33.1588C109.958 33.1588 110.432 33.1588 110.906 33.1588C110.404 33.432 109.835 33.527 109.2 33.4431C109.123 32.9884 109.218 32.6094 109.484 32.3057Z" fill="#2A5BB4"/>
</svg>
