<?xml version="1.0" standalone="no"?>
<!DOCTYPE svg PUBLIC "-//W3C//DTD SVG 20010904//EN"
 "http://www.w3.org/TR/2001/REC-SVG-20010904/DTD/svg10.dtd">
<svg version="1.0" xmlns="http://www.w3.org/2000/svg"
 width="513.000000pt" height="550.000000pt" viewBox="0 0 513.000000 550.000000"
 preserveAspectRatio="xMidYMid meet">

<g transform="translate(0.000000,550.000000) scale(0.100000,-0.100000)"
fill="#F5F5F5" stroke="none">
<path d="M2713 5405 c-211 -57 -332 -224 -333 -458 0 -38 -4 -56 -11 -52 -5 4
-21 4 -34 1 -36 -9 -49 -62 -42 -169 7 -114 37 -182 80 -182 26 1 27 -2 27
-45 0 -25 5 -72 10 -105 6 -33 8 -101 4 -152 l-6 -92 -46 -15 c-25 -9 -60 -16
-77 -16 -32 0 -297 -89 -396 -133 -31 -13 -72 -41 -91 -60 -40 -39 -105 -75
-200 -110 -89 -32 -175 -94 -289 -208 -143 -143 -182 -233 -219 -498 -17 -121
-41 -176 -110 -254 -73 -83 -109 -151 -162 -311 -36 -108 -46 -127 -94 -179
-30 -32 -54 -62 -54 -67 0 -5 -34 -79 -75 -165 -41 -87 -75 -159 -75 -161 0
-2 -12 -29 -26 -61 -54 -117 -93 -213 -87 -213 3 0 0 -6 -6 -13 -6 -8 -12 -22
-14 -33 -2 -10 -7 -26 -10 -34 -3 -8 -8 -26 -12 -40 -3 -14 -12 -48 -20 -76
-8 -28 -36 -161 -64 -296 -33 -163 -62 -277 -86 -339 -20 -52 -41 -112 -47
-134 -18 -72 -3 -189 56 -418 56 -222 78 -273 119 -282 79 -16 398 -41 369
-29 -10 5 -7 10 9 22 15 10 42 15 83 14 42 -1 74 5 101 17 22 11 34 20 28 20
-7 1 -13 11 -13 22 0 12 -9 36 -20 54 l-20 32 21 18 c18 17 26 18 90 7 187
-32 363 4 500 103 27 19 52 35 55 35 8 0 2 -47 -21 -175 -12 -62 -16 -114 -11
-137 l7 -38 1139 0 1140 0 0 69 c0 67 -10 213 -31 458 l-10 122 90 113 c50 62
109 127 132 143 60 44 147 151 182 224 17 35 54 88 82 116 27 29 64 75 80 101
38 60 444 646 583 842 122 171 137 200 153 284 34 182 -95 431 -359 694 -65
65 -180 149 -233 170 -30 12 -41 27 -71 92 -52 111 -127 221 -184 270 -70 60
-144 96 -301 148 -164 54 -376 164 -438 229 -35 36 -50 43 -105 53 -244 45
-261 53 -221 96 31 34 52 83 67 159 8 40 21 74 27 76 51 18 95 121 104 241 4
66 3 78 -15 96 -12 12 -26 24 -31 25 -8 3 -8 15 -1 39 5 19 10 70 10 112 0 70
-4 86 -39 160 -45 95 -91 149 -175 207 -114 79 -234 100 -363 66z m1158 -2312
c77 -68 184 -185 287 -312 105 -130 182 -211 250 -262 31 -24 61 -46 65 -49 4
-4 -8 -35 -28 -70 -19 -34 -56 -115 -80 -179 -88 -225 -129 -316 -195 -425
-36 -61 -85 -144 -108 -183 -84 -143 -134 -169 -340 -174 l-87 -2 -2 249 c-1
156 -8 300 -19 384 -23 196 -21 314 10 430 89 328 116 461 116 556 0 45 4 56
26 73 15 12 30 21 34 21 4 0 36 -26 71 -57z m-2237 -497 c14 -16 31 -47 37
-69 7 -25 9 -196 7 -495 -3 -455 -3 -457 20 -510 33 -79 30 -112 -18 -167 -59
-68 -73 -100 -67 -154 2 -25 8 -55 12 -66 4 -11 -5 -4 -21 15 -74 93 -173 163
-292 208 -57 22 -84 26 -182 26 -127 1 -150 -2 -229 -33 -30 -11 -56 -19 -58
-17 -2 2 13 32 33 66 59 101 119 235 169 379 63 182 100 254 209 407 109 153
185 279 257 428 l53 108 22 -49 c12 -26 34 -61 48 -77z m2134 -1705 c2 -21 -3
-40 -14 -53 -17 -18 -19 -18 -25 -1 -12 29 -10 63 4 78 18 21 32 12 35 -24z
m-3255 -83 c-4 -30 7 -136 24 -211 l6 -29 -51 34 c-44 28 -52 38 -52 65 0 42
57 173 76 173 1 0 0 -15 -3 -32z"/>
</g>
</svg>
