<svg width="440" height="891" xmlns="http://www.w3.org/2000/svg" preserveAspectRatio="xMidYMid meet">
<g id="svg_1" fill-opacity="0.04" fill="#000000" transform="translate(0,891) scale(0.10000000149011612,-0.10000000149011612) ">
  <path id="svg_2" d="m1918.20642,8901c-112,-19 -232,-119 -275,-229c-21,-52 -23,-72 -22,-248c0,-207 4,-240 31,-248c23,-8 136,-252 156,-336c31,-132 31,-124 -11,-157c-79,-63 -270,-181 -319,-197c-99,-33 -227,-129 -279,-211c-50,-77 -67,-151 -72,-310c-7,-234 -15,-359 -23,-370c-9,-11 -48,-130 -61,-185c-4,-19 -19,-82 -32,-140c-14,-58 -34,-128 -45,-157c-12,-28 -28,-79 -37,-113c-10,-39 -31,-82 -55,-114c-34,-45 -130,-224 -130,-242c0,-4 -43,-96 -95,-205c-52,-108 -95,-203 -95,-211c0,-28 -79,-177 -114,-214c-20,-21 -36,-45 -36,-54c0,-8 -11,-34 -24,-57c-34,-58 -81,-185 -100,-268c-10,-38 -25,-99 -35,-135c-54,-192 -58,-238 -42,-399c6,-62 11,-77 32,-95c14,-11 42,-46 62,-76c70,-107 175,-194 283,-236c38,-15 75,-19 164,-19c128,0 174,12 269,72c29,19 54,33 55,31c13,-18 31,-202 35,-363l6,-200l45,-23c24,-12 50,-28 56,-35c17,-17 33,-316 29,-557c-3,-193 1,-329 26,-875c12,-280 12,-281 -10,-345c-12,-35 -35,-79 -52,-97c-16,-19 -38,-52 -50,-75c-23,-46 -184,-262 -216,-290c-35,-32 -202,-100 -313,-128c-86,-22 -90,-28 -90,-134c0,-63 4,-97 13,-104c32,-26 315,-57 434,-47c81,7 205,31 288,56c22,6 96,13 165,14c136,3 206,13 290,42l55,19l-3,120c-2,65 -7,167 -12,226c-7,96 -11,111 -39,152c-52,76 -61,106 -61,213c1,176 42,658 69,806c6,31 15,83 21,115c12,66 12,302 1,382c-8,52 8,147 39,246c6,17 10,38 10,47c0,39 23,67 59,72c84,13 151,30 231,57c47,16 94,32 105,36c61,17 79,37 92,98c7,32 12,71 13,87c0,15 4,27 8,27c8,0 74,-89 170,-228c20,-30 46,-53 71,-64c34,-14 44,-27 71,-85c107,-226 160,-384 160,-470c0,-94 75,-514 120,-670c10,-38 122,-589 135,-670c6,-38 2,-51 -41,-130l-48,-88l-6,-155c-5,-110 -11,-169 -24,-204c-30,-81 -81,-188 -120,-249c-31,-48 -38,-71 -46,-140c-8,-70 -8,-84 6,-94c8,-6 66,-24 127,-39c194,-48 429,-36 519,28c67,47 94,211 91,566c-2,288 -2,287 -81,325l-47,22l-3,130c-2,72 1,204 8,295c6,91 17,262 25,380c20,292 20,521 -1,612c-18,79 -58,180 -99,254c-16,27 -46,83 -68,124l-39,75l6,135c3,74 7,143 9,154c4,20 41,45 68,46c8,0 25,9 38,21c21,19 21,22 7,44c-17,25 -55,136 -76,220c-15,57 -26,158 -39,360c-5,77 -14,155 -20,173c-6,19 -7,69 -4,117c5,65 2,93 -11,125c-13,32 -16,72 -14,193c1,134 -2,164 -24,252c-14,55 -31,143 -38,195c-7,52 -23,146 -36,209c-34,162 -33,202 12,262c20,27 40,49 44,49c5,0 24,31 43,70c29,61 50,84 158,181c161,145 736,688 816,772c34,35 64,75 67,88c11,57 16,208 6,214c-5,3 -42,50 -81,103c-136,184 -341,365 -497,440c-70,33 -75,38 -138,132c-124,187 -200,242 -439,317c-60,19 -151,54 -201,79c-97,47 -164,65 -314,84c-100,13 -148,34 -168,72c-19,38 -31,109 -32,185c0,70 1,73 29,87c59,31 89,117 70,204c-14,65 -24,82 -49,82c-15,0 -19,12 -25,63c-14,129 -103,250 -218,302c-58,25 -159,37 -223,26zm1158,-1905c18,-8 72,-43 118,-78c208,-157 325,-218 488,-258c23,-6 42,-13 42,-17c0,-13 -93,-194 -140,-273c-77,-129 -146,-213 -282,-346c-111,-109 -293,-264 -309,-264c-15,0 -19,75 -13,235c5,133 3,189 -10,259c-20,109 -20,206 -1,312c13,76 13,87 -5,150c-39,134 -36,237 7,279c18,19 61,19 105,1zm-1681,-1127c1,-133 -2,-162 -20,-212c-12,-32 -28,-90 -36,-128c-16,-73 -10,-134 26,-275c6,-23 11,-68 12,-100c1,-59 -3,-70 -68,-194c-38,-71 -78,-234 -87,-350c-10,-135 -18,-190 -28,-190c-5,0 -11,8 -15,18c-11,37 -149,167 -207,195c-57,28 -168,56 -223,57c-28,0 -33,6 -78,106c-33,71 -47,113 -43,128c12,46 97,144 310,354c119,118 227,230 240,250c31,50 116,259 116,286c0,12 11,38 25,57c14,19 33,59 42,89c30,106 33,98 34,-91z"/>
</g>
</svg>