<?xml version="1.0" standalone="no"?>
<!DOCTYPE svg PUBLIC "-//W3C//DTD SVG 20010904//EN"
 "http://www.w3.org/TR/2001/REC-SVG-20010904/DTD/svg10.dtd">
<svg version="1.0" xmlns="http://www.w3.org/2000/svg"
 width="931.000000pt" height="700.000000pt" viewBox="0 0 931.000000 700.000000"
 preserveAspectRatio="xMidYMid meet">

<g transform="translate(0.000000,700.000000) scale(0.100000,-0.100000)"
fill="#000000" stroke="none">
<path d="M4800 6990 c0 -5 -6 -10 -14 -10 -7 0 -44 -16 -82 -34 -95 -48 -166
-121 -217 -225 l-42 -85 0 -128 0 -128 -27 -11 c-16 -6 -28 -19 -28 -28 0 -24
28 -178 41 -224 16 -58 6 -83 -38 -97 -154 -50 -337 -184 -568 -415 l-130
-130 -36 -110 c-20 -61 -57 -157 -82 -215 -25 -58 -53 -134 -63 -170 -20 -73
-32 -95 -85 -160 -42 -51 -150 -251 -173 -320 -8 -25 -17 -70 -21 -100 -4 -30
-10 -59 -14 -65 -4 -5 -15 -35 -25 -65 -10 -30 -22 -64 -27 -75 -5 -11 -59
-168 -119 -349 -116 -344 -176 -550 -205 -701 -9 -49 -21 -110 -26 -135 -4
-25 -16 -97 -24 -160 -9 -63 -22 -155 -30 -205 -8 -49 -19 -139 -25 -200 -6
-60 -18 -151 -26 -201 -18 -115 -17 -202 1 -234 8 -14 14 -44 15 -67 0 -55
-24 -77 -114 -105 -164 -49 -246 -96 -289 -166 -13 -20 -38 -81 -55 -135 -18
-53 -41 -116 -53 -140 -53 -104 -149 -196 -266 -256 -100 -50 -156 -140 -174
-277 -15 -119 -31 -169 -95 -302 -30 -62 -54 -118 -54 -125 0 -7 -5 -18 -12
-25 -17 -17 -16 -160 1 -202 44 -108 89 -130 265 -131 120 0 128 1 190 31 75
35 131 94 147 154 7 24 9 82 6 141 -7 143 10 219 87 374 72 144 178 312 227
357 79 72 447 325 583 400 88 48 130 104 240 321 85 165 154 276 195 310 31
27 161 83 191 83 12 0 31 5 43 12 15 8 69 11 165 10 82 -2 150 2 161 8 20 10
38 58 66 175 9 39 21 86 26 105 5 19 29 112 52 205 23 94 46 172 51 175 4 3
29 -56 56 -131 97 -277 194 -429 275 -429 90 0 315 123 508 278 42 34 85 62
95 62 18 0 121 -80 240 -186 51 -46 70 -72 106 -147 49 -105 76 -200 76 -274
0 -108 22 -215 61 -299 39 -85 149 -358 149 -371 0 -4 11 -37 24 -73 44 -119
86 -264 111 -384 21 -99 25 -145 25 -285 0 -188 14 -358 35 -444 18 -71 70
-152 106 -168 40 -16 175 -7 303 21 96 20 116 22 166 12 107 -23 266 -12 370
24 143 50 293 135 305 174 8 25 -8 82 -34 118 -17 24 -149 122 -164 122 -3 0
-36 14 -74 31 -37 16 -79 35 -93 41 -14 6 -41 18 -60 27 -36 17 -250 223 -310
300 -19 24 -39 49 -45 56 -5 6 -31 24 -56 38 -28 16 -51 38 -57 54 -30 78 -63
275 -87 523 -8 91 -20 215 -26 275 -37 387 -49 433 -165 620 -25 41 -48 94
-55 125 -9 47 -52 187 -74 243 -10 23 10 22 88 -4 34 -12 91 -25 127 -30 104
-13 193 -55 329 -154 44 -32 83 -33 100 -1 12 21 9 29 -24 75 -21 29 -64 70
-97 92 -32 22 -56 44 -53 48 8 14 101 -8 147 -35 24 -14 68 -43 98 -64 61 -44
103 -51 120 -21 19 37 10 58 -50 117 -33 32 -60 62 -60 67 0 19 47 3 97 -33
31 -22 64 -40 74 -40 42 0 67 73 34 100 -8 7 -15 18 -15 25 0 7 7 18 15 25 24
20 18 59 -14 88 -15 15 -63 44 -105 65 -76 38 -86 50 -66 87 15 27 -11 43 -62
37 -24 -2 -87 -14 -141 -26 -55 -11 -120 -21 -145 -21 -25 0 -71 -6 -101 -14
-157 -40 -177 -40 -266 -1 -64 29 -231 113 -264 133 -17 10 -94 102 -170 205
-140 185 -140 186 -181 311 -32 96 -51 137 -81 173 -36 44 -59 95 -59 133 0
17 -63 109 -83 122 -6 4 -29 8 -49 8 -36 0 -38 2 -38 30 0 23 -7 35 -32 50
-18 11 -45 20 -60 20 -15 0 -29 4 -32 9 -9 13 13 131 30 164 9 16 39 62 68
101 53 74 60 85 98 148 25 41 45 46 108 28 46 -14 172 -40 235 -50 28 -4 111
-17 185 -29 271 -43 326 -51 352 -51 21 0 64 -13 86 -26 1 -1 14 -42 27 -91
36 -136 66 -189 153 -276 86 -86 100 -97 169 -131 208 -104 484 -65 656 93
135 125 198 268 198 451 0 95 -16 166 -59 260 -23 51 -94 141 -149 190 -56 49
-178 112 -255 130 -119 29 -263 11 -398 -48 -79 -35 -201 -145 -246 -220 -19
-33 -20 -33 -84 -30 -139 8 -407 69 -515 118 -22 10 -69 30 -105 45 -36 15
-69 31 -75 36 -5 5 -16 9 -25 9 -25 0 -81 30 -87 47 -3 8 6 52 21 97 15 46 29
100 33 122 3 25 17 51 40 75 19 20 41 58 49 84 18 61 18 178 0 230 -16 44 -69
95 -101 95 -33 0 -65 28 -65 57 0 32 17 138 35 218 21 90 28 222 17 292 -15
87 -57 167 -130 245 -59 63 -161 128 -199 128 -7 0 -13 5 -13 10 0 6 -50 10
-130 10 -80 0 -130 -4 -130 -10z"/>
<path d="M4125 6238 c-98 -18 -201 -40 -245 -53 -25 -7 -56 -15 -70 -18 -31
-6 -182 -51 -230 -68 -19 -7 -66 -23 -105 -37 -86 -31 -235 -97 -275 -122 -8
-5 -63 -38 -122 -73 -405 -244 -867 -688 -1097 -1055 -76 -121 -175 -326 -260
-537 -5 -11 -14 -33 -21 -50 -41 -99 -103 -327 -125 -455 -56 -324 -57 -339
-52 -660 2 -168 10 -336 16 -375 25 -145 42 -241 52 -275 5 -19 18 -69 28
-110 21 -78 65 -221 80 -255 4 -11 23 -58 41 -105 66 -173 129 -298 250 -498
35 -58 61 -92 72 -92 21 0 66 86 92 175 38 127 49 149 116 215 36 36 81 77
100 91 19 14 42 39 50 55 8 16 42 67 76 114 79 110 94 140 94 192 0 24 7 84
15 133 8 50 15 93 15 98 0 12 -29 8 -37 -7 -4 -7 -31 -40 -60 -72 -180 -203
-294 -382 -383 -601 -19 -46 -39 -83 -46 -83 -15 0 -102 175 -155 315 -11 28
-24 59 -29 70 -25 53 -97 291 -120 395 -4 19 -15 67 -24 107 -41 188 -50 285
-51 543 0 277 15 434 62 660 29 139 106 379 148 460 19 38 137 119 253 176 93
46 293 118 367 134 22 4 83 17 135 28 152 32 258 50 365 63 160 19 155 16 192
91 18 37 37 69 43 73 14 9 13 45 -2 45 -43 -1 -249 -22 -338 -35 -58 -9 -134
-19 -170 -24 -65 -9 -137 -23 -220 -42 -98 -23 -382 -118 -396 -132 -8 -8 -44
-9 -44 -2 0 9 81 136 151 235 100 142 211 262 381 412 154 135 374 306 503
390 79 52 226 128 247 128 8 0 18 4 24 9 17 15 137 52 239 72 28 6 110 14 183
19 l134 9 51 39 c83 62 121 89 132 93 37 15 145 94 145 105 0 8 -5 34 -12 59
l-12 45 -51 -1 c-27 -1 -72 -6 -100 -11z"/>
<path d="M5563 6095 c63 -61 74 -85 87 -202 10 -87 10 -112 -4 -174 -19 -79
-37 -120 -71 -157 -22 -24 -43 -80 -48 -132 -2 -24 -1 -25 95 -72 10 -4 25 -8
34 -8 16 0 16 2 0 19 -21 23 -29 5 112 244 60 101 111 177 120 177 20 0 203
-94 272 -139 30 -20 62 -39 70 -43 8 -3 60 -41 115 -82 55 -42 105 -76 111
-76 7 0 40 11 75 24 36 13 79 26 98 29 18 3 35 7 37 10 12 11 -16 38 -109 109
-248 186 -479 318 -732 417 -44 18 -88 36 -97 41 -10 6 -26 10 -36 10 -10 0
-22 4 -27 9 -13 11 -108 41 -131 41 -12 0 -3 -14 29 -45z"/>
<path d="M5551 4574 c-127 -65 -231 -123 -231 -129 0 -6 18 -36 40 -65 22 -29
40 -57 40 -61 0 -4 8 -10 19 -14 12 -3 55 13 117 45 55 28 137 68 184 89 93
42 248 114 294 137 16 8 35 14 43 14 10 0 13 9 11 27 -3 25 -9 29 -75 44 -39
9 -102 20 -141 24 l-69 7 -232 -118z"/>
<path d="M7415 4457 c-11 -23 -29 -56 -42 -72 -45 -61 -46 -79 -12 -173 30
-85 73 -219 122 -377 14 -44 22 -84 17 -88 -4 -5 -43 16 -86 45 -69 47 -259
158 -271 158 -2 0 -30 12 -61 26 -31 15 -73 31 -92 36 -113 30 -214 47 -281
48 -54 0 -80 4 -89 14 -6 8 -28 20 -48 27 -61 19 -160 67 -208 99 -55 39 -57
26 -9 -70 19 -38 35 -78 35 -88 0 -18 -38 -62 -54 -62 -23 0 -195 -138 -286
-229 -157 -157 -222 -251 -174 -251 8 0 45 -16 81 -35 77 -41 83 -39 146 43
54 69 183 194 252 244 49 35 116 68 140 68 13 0 41 -59 75 -155 11 -33 30 -87
42 -120 11 -33 26 -63 32 -67 6 -4 32 -8 58 -8 26 0 68 -5 93 -12 24 -7 47 -9
50 -6 7 7 -3 45 -39 143 -74 205 -86 239 -86 253 0 12 11 14 70 8 75 -7 114
-19 230 -73 113 -53 179 -95 366 -234 l171 -127 7 -47 c3 -27 6 -114 6 -194
-1 -297 -39 -561 -117 -821 -122 -406 -262 -682 -525 -1040 -29 -39 -32 -14
-9 62 25 81 32 108 56 218 66 311 90 631 66 873 -6 51 -13 131 -16 178 -7 97
-19 126 -38 94 -27 -44 -75 -84 -116 -95 l-44 -11 6 -62 c27 -271 11 -610 -39
-857 -32 -159 -91 -350 -143 -461 -55 -120 -55 -110 -5 -170 25 -30 66 -80 92
-111 26 -31 53 -59 61 -63 14 -5 100 76 227 215 162 178 358 494 474 765 25
57 105 267 120 315 24 73 75 288 90 375 7 39 16 88 22 110 16 67 27 497 18
675 -11 181 -40 390 -71 501 -56 205 -110 370 -145 447 -13 29 -24 57 -24 62
0 20 -53 120 -64 120 -6 0 -20 -19 -31 -43z"/>
<path d="M5282 2518 c-6 -7 -70 -130 -142 -273 -292 -575 -353 -686 -527 -965
-180 -288 -375 -534 -592 -749 -149 -146 -182 -171 -224 -171 -30 0 -216 60
-264 85 -16 8 -32 15 -36 15 -5 0 -46 18 -93 40 -47 22 -87 40 -88 40 -10 0
-253 141 -322 186 -89 60 -233 174 -307 243 -75 70 -71 71 -123 -10 -25 -40
-48 -78 -51 -84 -9 -25 295 -270 467 -377 214 -133 551 -288 735 -338 17 -5
62 -17 100 -28 122 -34 290 -67 425 -83 52 -6 99 -13 103 -16 16 -10 562 -4
637 7 148 21 266 42 330 56 36 8 85 20 110 26 86 19 289 87 410 135 l95 38 3
40 c6 69 -8 165 -24 165 -7 0 -39 -12 -71 -26 -168 -76 -521 -187 -661 -208
-88 -13 -335 -35 -342 -31 -4 2 -139 5 -301 6 -292 1 -449 13 -456 36 -2 6 69
87 159 180 149 153 277 309 419 513 49 69 239 376 239 385 0 3 11 22 23 43 30
47 67 113 130 232 27 52 63 120 80 150 95 176 307 601 307 618 0 19 -110 132
-128 132 -5 0 -14 -6 -20 -12z"/>
</g>
</svg>
