<?xml version="1.0" encoding="UTF-8"?>
<!DOCTYPE svg PUBLIC "-//W3C//DTD SVG 1.1//EN" "http://www.w3.org/Graphics/SVG/1.1/DTD/svg11.dtd">
<svg xmlns="http://www.w3.org/2000/svg" version="1.1" width="570px" height="380px" style="shape-rendering:geometricPrecision; text-rendering:geometricPrecision; image-rendering:optimizeQuality; fill-rule:evenodd; clip-rule:evenodd" xmlns:xlink="http://www.w3.org/1999/xlink">
<g><path style="opacity:0.502" fill="#efce39" d="M 516.5,22.5 C 514.5,22.5 512.5,22.5 510.5,22.5C 510.5,23.5 510.5,24.5 510.5,25.5C 509.566,24.4324 509.232,23.099 509.5,21.5C 512.059,21.1984 514.393,21.5318 516.5,22.5 Z"/></g>
<g><path style="opacity:0.188" fill="#f0ce34" d="M 211.5,23.5 C 209.389,22.2584 207.389,22.2584 205.5,23.5C 204.957,23.44 204.624,23.1067 204.5,22.5C 205.667,22.1667 206.833,21.8333 208,21.5C 209.681,21.6083 210.848,22.2749 211.5,23.5 Z"/></g>
<g><path style="opacity:0.914" fill="#fbd10e" d="M 205.5,23.5 C 207.389,22.2584 209.389,22.2584 211.5,23.5C 214.568,26.3999 217.235,26.0665 219.5,22.5C 221.743,21.5258 224.076,21.1924 226.5,21.5C 226.173,28.4888 222.506,31.4888 215.5,30.5C 209.92,31.0649 206.586,28.7316 205.5,23.5 Z"/></g>
<g><path style="opacity:0.924" fill="#fbd10a" d="M 510.5,25.5 C 510.5,24.5 510.5,23.5 510.5,22.5C 512.5,22.5 514.5,22.5 516.5,22.5C 519.393,26.6135 522.06,26.4469 524.5,22C 526.473,21.5045 528.473,21.3379 530.5,21.5C 531.154,25.6826 529.488,28.516 525.5,30C 521.833,30.6667 518.167,30.6667 514.5,30C 512.249,29.2525 510.916,27.7525 510.5,25.5 Z"/></g>
<g><path style="opacity:0.251" fill="#efce3c" d="M 75.5,32.5 C 72.2869,32.19 69.2869,32.5233 66.5,33.5C 65.9569,33.44 65.6236,33.1067 65.5,32.5C 68.9798,31.1944 72.3132,31.1944 75.5,32.5 Z"/></g>
<g><path style="opacity:0.251" fill="#eecf34" d="M 94.5,32.5 C 97.3553,31.1968 100.355,31.1968 103.5,32.5C 103.376,33.1067 103.043,33.44 102.5,33.5C 100.052,32.5269 97.3854,32.1936 94.5,32.5 Z"/></g>
<g><path style="opacity:0.251" fill="#f1cd35" d="M 167.5,32.5 C 170.687,31.1944 174.02,31.1944 177.5,32.5C 177.376,33.1067 177.043,33.44 176.5,33.5C 173.713,32.5233 170.713,32.19 167.5,32.5 Z"/></g>
<g><path style="opacity:1" fill="#f1ce32" d="M 51.5,32.5 C 45.8333,32.5 40.1667,32.5 34.5,32.5C 34.5,44.5 34.5,56.5 34.5,68.5C 37.1667,68.5 39.8333,68.5 42.5,68.5C 39.7131,69.4767 36.7131,69.81 33.5,69.5C 33.5,56.8333 33.5,44.1667 33.5,31.5C 39.69,31.1771 45.69,31.5104 51.5,32.5 Z"/></g>
<g><path style="opacity:0.981" fill="#fcd107" d="M 51.5,32.5 C 65.0081,34.5098 68.8415,41.8432 63,54.5C 56.9284,58.9751 50.0951,60.6418 42.5,59.5C 42.5,62.5 42.5,65.5 42.5,68.5C 39.8333,68.5 37.1667,68.5 34.5,68.5C 34.5,56.5 34.5,44.5 34.5,32.5C 40.1667,32.5 45.8333,32.5 51.5,32.5 Z M 42.5,39.5 C 46.2733,39.2633 49.9399,39.7633 53.5,41C 57.6625,44.8292 57.3292,48.1625 52.5,51C 49.1832,51.4983 45.8499,51.665 42.5,51.5C 42.5,47.5 42.5,43.5 42.5,39.5 Z"/></g>
<g><path style="opacity:0.965" fill="#fcd109" d="M 75.5,32.5 C 78.2326,38.2981 81.2326,43.9647 84.5,49.5C 88.1119,43.9347 91.4452,38.2681 94.5,32.5C 97.3854,32.1936 100.052,32.5269 102.5,33.5C 97.6144,43.6034 92.4478,53.6034 87,63.5C 82.0544,69.9857 75.8877,71.6523 68.5,68.5C 69.5771,66.2706 70.2437,63.9372 70.5,61.5C 74.2464,63.4185 77.2464,62.5852 79.5,59C 74.9064,50.5897 70.573,42.0897 66.5,33.5C 69.2869,32.5233 72.2869,32.19 75.5,32.5 Z"/></g>
<g><path style="opacity:0.963" fill="#fcd00c" d="M 117.5,31.5 C 124.221,30.7513 130.554,31.9179 136.5,35C 137.687,36.0195 138.687,37.1861 139.5,38.5C 137.5,40.1667 135.5,41.8333 133.5,43.5C 125.849,37.5256 119.349,38.5256 114,46.5C 112.113,57.9467 116.947,62.78 128.5,61C 130.305,60.028 131.972,58.8613 133.5,57.5C 135.65,59.1491 137.65,60.9824 139.5,63C 128.572,72.9737 117.739,72.8071 107,62.5C 100.09,48.3937 103.59,38.0603 117.5,31.5 Z"/></g>
<g><path style="opacity:0.977" fill="#fdd105" d="M 153.5,45.5 C 154.946,46.6129 156.613,46.7796 158.5,46C 161.647,41.5206 164.647,37.0206 167.5,32.5C 170.713,32.19 173.713,32.5233 176.5,33.5C 173.473,39.3723 169.807,44.8723 165.5,50C 169.874,55.9111 173.874,62.0777 177.5,68.5C 174.216,69.657 170.882,69.8236 167.5,69C 164.304,64.636 161.304,60.136 158.5,55.5C 156.701,54.2121 155.035,54.2121 153.5,55.5C 152.515,59.6344 152.182,63.9677 152.5,68.5C 149.833,68.5 147.167,68.5 144.5,68.5C 144.5,56.5 144.5,44.5 144.5,32.5C 147.167,32.5 149.833,32.5 152.5,32.5C 152.182,37.0323 152.515,41.3656 153.5,45.5 Z"/></g>
<g><path style="opacity:0.851" fill="#fdd105" d="M 180.5,31.5 C 183.833,31.5 187.167,31.5 190.5,31.5C 190.5,44.1667 190.5,56.8333 190.5,69.5C 187.167,69.5 183.833,69.5 180.5,69.5C 180.5,56.8333 180.5,44.1667 180.5,31.5 Z"/></g>
<g><path style="opacity:0.989" fill="#fdd105" d="M 232.5,68.5 C 229.833,68.5 227.167,68.5 224.5,68.5C 224.823,61.9779 224.49,55.6446 223.5,49.5C 223.631,48.7611 223.464,48.0944 223,47.5C 217.833,54.6667 212.667,61.8333 207.5,69C 204.518,69.498 201.518,69.6646 198.5,69.5C 198.5,57.1667 198.5,44.8333 198.5,32.5C 201.167,32.5 203.833,32.5 206.5,32.5C 206.177,39.0221 206.51,45.3554 207.5,51.5C 207.775,53.8418 208.608,53.8418 210,51.5C 214.306,45.0277 218.806,38.6944 223.5,32.5C 226.428,31.5159 229.428,31.1826 232.5,31.5C 232.5,43.8333 232.5,56.1667 232.5,68.5 Z"/></g>
<g><path style="opacity:0.98" fill="#fdd107" d="M 274.5,32.5 C 281.487,31.8168 285.82,34.8168 287.5,41.5C 286.985,44.7427 285.652,47.5761 283.5,50C 285.667,50.8333 287.167,52.3333 288,54.5C 290.287,62.3642 287.453,67.0309 279.5,68.5C 271.833,68.5 264.167,68.5 256.5,68.5C 256.5,56.5 256.5,44.5 256.5,32.5C 262.5,32.5 268.5,32.5 274.5,32.5 Z M 265.5,39.5 C 268.85,39.335 272.183,39.5017 275.5,40C 278.341,43.1588 277.674,45.4922 273.5,47C 270.854,47.4974 268.187,47.6641 265.5,47.5C 265.5,44.8333 265.5,42.1667 265.5,39.5 Z M 265.5,53.5 C 269.605,53.2338 273.605,53.7338 277.5,55C 280.341,58.1588 279.674,60.4922 275.5,62C 272.183,62.4983 268.85,62.665 265.5,62.5C 265.5,59.5 265.5,56.5 265.5,53.5 Z"/></g>
<g><path style="opacity:0.975" fill="#fcd10b" d="M 306.5,31.5 C 329.222,30.9704 336.722,41.3038 329,62.5C 319.129,71.6194 308.629,72.4527 297.5,65C 289.042,54.4058 289.709,44.4058 299.5,35C 301.925,33.7874 304.259,32.6207 306.5,31.5 Z M 309.5,39.5 C 317.883,38.8533 322.549,42.6866 323.5,51C 321.95,59.5551 316.95,62.8884 308.5,61C 301.577,57.2587 299.744,51.7587 303,44.5C 304.805,42.1743 306.972,40.5077 309.5,39.5 Z"/></g>
<g><path style="opacity:0.954" fill="#fcd00b" d="M 349.5,31.5 C 357.095,30.3582 363.928,32.0249 370,36.5C 370.269,39.2798 369.102,41.4464 366.5,43C 362.951,41.9161 359.284,40.7494 355.5,39.5C 350.906,40.2537 347.573,42.7537 345.5,47C 350.489,47.4993 355.489,47.6659 360.5,47.5C 360.5,49.8333 360.5,52.1667 360.5,54.5C 355.786,54.1734 351.12,54.5067 346.5,55.5C 349.138,61.0601 353.471,62.8934 359.5,61C 361.305,60.028 362.972,58.8613 364.5,57.5C 371.925,60.5521 372.258,64.0521 365.5,68C 358.135,71.0736 350.801,70.7403 343.5,67C 333.735,57.225 333.069,46.8916 341.5,36C 344.099,34.205 346.766,32.705 349.5,31.5 Z"/></g>
<g><path style="opacity:0.973" fill="#fdd100" d="M 384.5,32.5 C 384.5,37.1667 384.5,41.8333 384.5,46.5C 389.833,46.5 395.167,46.5 400.5,46.5C 400.5,41.8333 400.5,37.1667 400.5,32.5C 403.167,32.5 405.833,32.5 408.5,32.5C 408.5,44.5 408.5,56.5 408.5,68.5C 405.833,68.5 403.167,68.5 400.5,68.5C 400.5,63.8333 400.5,59.1667 400.5,54.5C 395.167,54.5 389.833,54.5 384.5,54.5C 384.5,59.1667 384.5,63.8333 384.5,68.5C 381.833,68.5 379.167,68.5 376.5,68.5C 376.5,56.5 376.5,44.5 376.5,32.5C 379.167,32.5 381.833,32.5 384.5,32.5 Z"/></g>
<g><path style="opacity:0.753" fill="#eecf35" d="M 400.5,32.5 C 403.287,31.5233 406.287,31.19 409.5,31.5C 409.5,44.1667 409.5,56.8333 409.5,69.5C 406.287,69.81 403.287,69.4767 400.5,68.5C 403.167,68.5 405.833,68.5 408.5,68.5C 408.5,56.5 408.5,44.5 408.5,32.5C 405.833,32.5 403.167,32.5 400.5,32.5 Z"/></g>
<g><path style="opacity:0.251" fill="#f1ce34" d="M 427.5,45.5 C 426.515,41.3656 426.182,37.0323 426.5,32.5C 423.833,32.5 421.167,32.5 418.5,32.5C 418.5,44.5 418.5,56.5 418.5,68.5C 421.167,68.5 423.833,68.5 426.5,68.5C 426.182,63.9677 426.515,59.6344 427.5,55.5C 427.5,60.1667 427.5,64.8333 427.5,69.5C 424.167,69.5 420.833,69.5 417.5,69.5C 417.5,56.8333 417.5,44.1667 417.5,31.5C 420.833,31.5 424.167,31.5 427.5,31.5C 427.5,36.1667 427.5,40.8333 427.5,45.5 Z"/></g>
<g><path style="opacity:0.923" fill="#fdd103" d="M 427.5,55.5 C 426.515,59.6344 426.182,63.9677 426.5,68.5C 423.833,68.5 421.167,68.5 418.5,68.5C 418.5,56.5 418.5,44.5 418.5,32.5C 421.167,32.5 423.833,32.5 426.5,32.5C 426.182,37.0323 426.515,41.3656 427.5,45.5C 432.305,46.4872 437.305,46.8205 442.5,46.5C 442.5,41.5 442.5,36.5 442.5,31.5C 445.833,31.5 449.167,31.5 452.5,31.5C 452.5,44.1667 452.5,56.8333 452.5,69.5C 449.167,69.5 445.833,69.5 442.5,69.5C 442.5,64.5 442.5,59.5 442.5,54.5C 437.305,54.1795 432.305,54.5128 427.5,55.5 Z"/></g>
<g><path style="opacity:0.972" fill="#fdd104" d="M 494.5,68.5 C 491.833,68.5 489.167,68.5 486.5,68.5C 486.823,61.9779 486.49,55.6446 485.5,49.5C 485.631,48.7611 485.464,48.0944 485,47.5C 479.833,54.6667 474.667,61.8333 469.5,69C 466.518,69.498 463.518,69.6646 460.5,69.5C 460.5,57.1667 460.5,44.8333 460.5,32.5C 463.167,32.5 465.833,32.5 468.5,32.5C 468.177,39.0221 468.51,45.3554 469.5,51.5C 469.775,53.8418 470.608,53.8418 472,51.5C 476.448,44.7179 481.281,38.2179 486.5,32C 489.146,31.5026 491.813,31.3359 494.5,31.5C 494.5,43.8333 494.5,56.1667 494.5,68.5 Z"/></g>
<g><path style="opacity:0.753" fill="#f1ce35" d="M 460.5,32.5 C 463.287,31.5233 466.287,31.19 469.5,31.5C 469.5,38.1667 469.5,44.8333 469.5,51.5C 468.51,45.3554 468.177,39.0221 468.5,32.5C 465.833,32.5 463.167,32.5 460.5,32.5 Z"/></g>
<g><path style="opacity:0.967" fill="#fdd102" d="M 512.5,32.5 C 512.334,39.5079 512.5,46.5079 513,53.5C 518.03,46.3173 523.197,39.3173 528.5,32.5C 531.167,32.5 533.833,32.5 536.5,32.5C 536.5,44.5 536.5,56.5 536.5,68.5C 533.833,68.5 531.167,68.5 528.5,68.5C 528.666,61.4921 528.5,54.4921 528,47.5C 523.002,54.6591 517.835,61.6591 512.5,68.5C 509.833,68.5 507.167,68.5 504.5,68.5C 504.5,56.5 504.5,44.5 504.5,32.5C 507.167,32.5 509.833,32.5 512.5,32.5 Z"/></g>
<g><path style="opacity:0.753" fill="#eecf35" d="M 528.5,32.5 C 531.287,31.5233 534.287,31.19 537.5,31.5C 537.5,44.1667 537.5,56.8333 537.5,69.5C 534.287,69.81 531.287,69.4767 528.5,68.5C 531.167,68.5 533.833,68.5 536.5,68.5C 536.5,56.5 536.5,44.5 536.5,32.5C 533.833,32.5 531.167,32.5 528.5,32.5 Z"/></g>
<g><path style="opacity:0.502" fill="#efce35" d="M 153.5,45.5 C 152.515,41.3656 152.182,37.0323 152.5,32.5C 149.833,32.5 147.167,32.5 144.5,32.5C 144.5,44.5 144.5,56.5 144.5,68.5C 147.167,68.5 149.833,68.5 152.5,68.5C 152.182,63.9677 152.515,59.6344 153.5,55.5C 153.5,60.1667 153.5,64.8333 153.5,69.5C 150.167,69.5 146.833,69.5 143.5,69.5C 143.5,56.8333 143.5,44.1667 143.5,31.5C 146.833,31.5 150.167,31.5 153.5,31.5C 153.5,36.1667 153.5,40.8333 153.5,45.5 Z"/></g>
<g><path style="opacity:0.753" fill="#f1ce32" d="M 198.5,32.5 C 201.287,31.5233 204.287,31.19 207.5,31.5C 207.5,38.1667 207.5,44.8333 207.5,51.5C 206.51,45.3554 206.177,39.0221 206.5,32.5C 203.833,32.5 201.167,32.5 198.5,32.5 Z"/></g>
<g><path style="opacity:1" fill="#f0ce32" d="M 512.5,32.5 C 509.833,32.5 507.167,32.5 504.5,32.5C 504.5,44.5 504.5,56.5 504.5,68.5C 507.167,68.5 509.833,68.5 512.5,68.5C 509.713,69.4767 506.713,69.81 503.5,69.5C 503.5,56.8333 503.5,44.1667 503.5,31.5C 506.713,31.19 509.713,31.5233 512.5,32.5 Z"/></g>
<g><path style="opacity:0.502" fill="#f1ce32" d="M 274.5,32.5 C 268.5,32.5 262.5,32.5 256.5,32.5C 256.5,44.5 256.5,56.5 256.5,68.5C 264.167,68.5 271.833,68.5 279.5,68.5C 271.684,69.4924 263.684,69.8257 255.5,69.5C 255.5,56.8333 255.5,44.1667 255.5,31.5C 262.022,31.1765 268.355,31.5098 274.5,32.5 Z"/></g>
<g><path style="opacity:0.753" fill="#f0cf33" d="M 384.5,32.5 C 381.833,32.5 379.167,32.5 376.5,32.5C 376.5,44.5 376.5,56.5 376.5,68.5C 379.167,68.5 381.833,68.5 384.5,68.5C 381.713,69.4767 378.713,69.81 375.5,69.5C 375.5,56.8333 375.5,44.1667 375.5,31.5C 378.713,31.19 381.713,31.5233 384.5,32.5 Z"/></g>
<g><path style="opacity:0.502" fill="#f0ce33" d="M 223.5,49.5 C 224.49,55.6446 224.823,61.9779 224.5,68.5C 227.167,68.5 229.833,68.5 232.5,68.5C 229.713,69.4767 226.713,69.81 223.5,69.5C 223.5,62.8333 223.5,56.1667 223.5,49.5 Z"/></g>
<g><path style="opacity:0.502" fill="#efce36" d="M 485.5,49.5 C 486.49,55.6446 486.823,61.9779 486.5,68.5C 489.167,68.5 491.833,68.5 494.5,68.5C 491.713,69.4767 488.713,69.81 485.5,69.5C 485.5,62.8333 485.5,56.1667 485.5,49.5 Z"/></g>
<g><path style="opacity:0.251" fill="#f0ce3a" d="M 169.5,84.5 C 172.687,83.1944 176.02,83.1944 179.5,84.5C 179.376,85.1067 179.043,85.44 178.5,85.5C 175.713,84.5233 172.713,84.19 169.5,84.5 Z"/></g>
<g><path style="opacity:0.243" fill="#f1ce33" d="M 382.5,84.5 C 385.287,83.5233 388.287,83.19 391.5,83.5C 391.5,87.5 391.5,91.5 391.5,95.5C 390.518,92.0381 390.185,88.3714 390.5,84.5C 387.833,84.5 385.167,84.5 382.5,84.5 Z"/></g>
<g><path style="opacity:0.978" fill="#fcd106" d="M 155.5,96.5 C 155.791,97.6491 156.624,98.3158 158,98.5C 158.833,98.3333 159.667,98.1667 160.5,98C 163.634,93.5574 166.634,89.0574 169.5,84.5C 172.713,84.19 175.713,84.5233 178.5,85.5C 175.404,91.107 172.07,96.607 168.5,102C 172.089,108.59 176.089,114.923 180.5,121C 176.833,121.667 173.167,121.667 169.5,121C 166.376,116.586 163.376,112.086 160.5,107.5C 158.701,106.212 157.035,106.212 155.5,107.5C 154.515,111.634 154.182,115.968 154.5,120.5C 151.833,120.5 149.167,120.5 146.5,120.5C 146.5,108.5 146.5,96.5 146.5,84.5C 149.167,84.5 151.833,84.5 154.5,84.5C 154.183,88.7016 154.517,92.7016 155.5,96.5 Z"/></g>
<g><path style="opacity:0.967" fill="#fcd10b" d="M 194.5,83.5 C 213.81,81.9738 222.31,90.6405 220,109.5C 214.296,120.297 205.463,124.13 193.5,121C 182.352,116.54 178.186,108.374 181,96.5C 183.442,89.8884 187.942,85.555 194.5,83.5 Z M 197.5,91.5 C 207.84,91.337 212.34,96.337 211,106.5C 207.23,113.414 201.73,115.247 194.5,112C 187.402,103.908 188.402,97.0746 197.5,91.5 Z"/></g>
<g><path style="opacity:0.94" fill="#fcd109" d="M 226.5,83.5 C 234.553,83.2252 242.553,83.7252 250.5,85C 259.276,89.6624 261.442,96.4958 257,105.5C 254.658,108.754 251.491,110.588 247.5,111C 243.848,111.499 240.182,111.665 236.5,111.5C 236.5,114.833 236.5,118.167 236.5,121.5C 233.167,121.5 229.833,121.5 226.5,121.5C 226.5,108.833 226.5,96.1667 226.5,83.5 Z M 236.5,91.5 C 240.96,90.8847 244.96,91.8847 248.5,94.5C 250.421,98.4192 249.421,101.253 245.5,103C 242.518,103.498 239.518,103.665 236.5,103.5C 236.5,99.5 236.5,95.5 236.5,91.5 Z"/></g>
<g><path style="opacity:0.963" fill="#fcd10b" d="M 298.5,118.5 C 296.012,120.388 293.012,121.055 289.5,120.5C 288.406,118.388 287.406,116.221 286.5,114C 281.136,113.171 275.802,113.337 270.5,114.5C 269.399,116.642 268.399,118.808 267.5,121C 264.118,121.824 260.784,121.657 257.5,120.5C 262.88,108.188 268.547,96.0218 274.5,84C 277.554,83.1786 280.554,83.3452 283.5,84.5C 288.512,95.8549 293.512,107.188 298.5,118.5 Z M 277.5,95.5 C 278.376,95.3691 279.043,95.7025 279.5,96.5C 280.704,99.7394 282.038,102.906 283.5,106C 280.167,106.667 276.833,106.667 273.5,106C 275.33,102.676 276.663,99.1763 277.5,95.5 Z"/></g>
<g><path style="opacity:0.987" fill="#fdd104" d="M 313.5,91.5 C 312.532,93.6074 312.198,95.9407 312.5,98.5C 318.176,98.3339 323.843,98.5006 329.5,99C 335.561,101.963 337.728,106.797 336,113.5C 334.394,117.892 331.228,120.225 326.5,120.5C 319.167,120.5 311.833,120.5 304.5,120.5C 304.5,108.5 304.5,96.5 304.5,84.5C 313.833,84.5 323.167,84.5 332.5,84.5C 332.5,86.5 332.5,88.5 332.5,90.5C 325.978,90.1765 319.645,90.5098 313.5,91.5 Z M 312.5,105.5 C 316.514,105.334 320.514,105.501 324.5,106C 327.488,109.539 326.821,112.205 322.5,114C 319.183,114.498 315.85,114.665 312.5,114.5C 312.5,111.5 312.5,108.5 312.5,105.5 Z"/></g>
<g><path style="opacity:0.954" fill="#fdd005" d="M 374.5,84.5 C 374.5,96.5 374.5,108.5 374.5,120.5C 371.833,120.5 369.167,120.5 366.5,120.5C 366.827,110.652 366.494,100.986 365.5,91.5C 361.5,91.5 357.5,91.5 353.5,91.5C 354.275,101.244 352.775,110.578 349,119.5C 348.329,120.252 347.496,120.586 346.5,120.5C 343.833,120.5 341.167,120.5 338.5,120.5C 338.185,117.789 338.852,115.456 340.5,113.5C 342.41,112.025 343.576,110.025 344,107.5C 344.176,103.312 344.676,99.3123 345.5,95.5C 346.482,92.0381 346.815,88.3714 346.5,84.5C 355.833,84.5 365.167,84.5 374.5,84.5 Z"/></g>
<g><path style="opacity:0.972" fill="#fdd009" d="M 382.5,84.5 C 385.167,84.5 387.833,84.5 390.5,84.5C 390.185,88.3714 390.518,92.0381 391.5,95.5C 397.994,95.1658 404.327,95.9992 410.5,98C 412.049,99.214 413.215,100.714 414,102.5C 416.707,111.925 413.54,118.091 404.5,121C 397.174,121.5 389.841,121.666 382.5,121.5C 382.5,109.167 382.5,96.8333 382.5,84.5 Z M 391.5,103.5 C 395.182,103.335 398.848,103.501 402.5,104C 406.792,108.18 406.126,111.513 400.5,114C 397.518,114.498 394.518,114.665 391.5,114.5C 391.5,110.833 391.5,107.167 391.5,103.5 Z"/></g>
<g><path style="opacity:0.251" fill="#f0ce33" d="M 155.5,96.5 C 154.517,92.7016 154.183,88.7016 154.5,84.5C 151.833,84.5 149.167,84.5 146.5,84.5C 146.5,96.5 146.5,108.5 146.5,120.5C 149.167,120.5 151.833,120.5 154.5,120.5C 154.182,115.968 154.515,111.634 155.5,107.5C 155.5,112.167 155.5,116.833 155.5,121.5C 152.167,121.5 148.833,121.5 145.5,121.5C 145.5,108.833 145.5,96.1667 145.5,83.5C 148.833,83.5 152.167,83.5 155.5,83.5C 155.5,87.8333 155.5,92.1667 155.5,96.5 Z"/></g>
<g><path style="opacity:0.938" fill="#f1ce32" d="M 374.5,84.5 C 365.167,84.5 355.833,84.5 346.5,84.5C 346.815,88.3714 346.482,92.0381 345.5,95.5C 345.5,91.5 345.5,87.5 345.5,83.5C 355.348,83.1729 365.014,83.5062 374.5,84.5 Z"/></g>
<g><path style="opacity:0.753" fill="#f0ce34" d="M 313.5,91.5 C 319.645,90.5098 325.978,90.1765 332.5,90.5C 332.5,88.5 332.5,86.5 332.5,84.5C 323.167,84.5 313.833,84.5 304.5,84.5C 304.5,96.5 304.5,108.5 304.5,120.5C 311.833,120.5 319.167,120.5 326.5,120.5C 319.018,121.492 311.352,121.825 303.5,121.5C 303.5,108.833 303.5,96.1667 303.5,83.5C 313.5,83.5 323.5,83.5 333.5,83.5C 333.5,86.1667 333.5,88.8333 333.5,91.5C 326.833,91.5 320.167,91.5 313.5,91.5 Z"/></g>
<g><path style="opacity:1" fill="#f1ce30" d="M 365.5,91.5 C 366.494,100.986 366.827,110.652 366.5,120.5C 369.167,120.5 371.833,120.5 374.5,120.5C 371.713,121.477 368.713,121.81 365.5,121.5C 365.5,111.5 365.5,101.5 365.5,91.5 Z"/></g>
<g><path style="opacity:0.929" fill="#fcd10b" d="M 423.5,128.5 C 421.833,128.5 420.167,128.5 418.5,128.5C 418.5,127.5 418.5,126.5 418.5,125.5C 419.787,122.57 419.287,120.237 417,118.5C 416.586,111.257 419.752,109.091 426.5,112C 428.136,117.924 427.136,123.424 423.5,128.5 Z"/></g>
<g><path style="opacity:0.627" fill="#f0ce36" d="M 340.5,113.5 C 338.852,115.456 338.185,117.789 338.5,120.5C 341.167,120.5 343.833,120.5 346.5,120.5C 343.713,121.477 340.713,121.81 337.5,121.5C 337.5,118.833 337.5,116.167 337.5,113.5C 338.5,113.5 339.5,113.5 340.5,113.5 Z"/></g>
<g><path style="opacity:0.502" fill="#efcf35" d="M 298.5,118.5 C 299.404,119.209 299.737,120.209 299.5,121.5C 295.958,121.813 292.625,121.479 289.5,120.5C 293.012,121.055 296.012,120.388 298.5,118.5 Z"/></g>
<g><path style="opacity:0.502" fill="#eccf3d" d="M 418.5,125.5 C 418.5,126.5 418.5,127.5 418.5,128.5C 420.167,128.5 421.833,128.5 423.5,128.5C 421.735,129.461 419.735,129.795 417.5,129.5C 417.232,127.901 417.566,126.568 418.5,125.5 Z"/></g>
<g><path style="opacity:0.968" fill="#fdd105" d="M 285.5,151.5 C 290.444,154.349 294.278,158.349 297,163.5C 310.542,192.375 316.042,222.708 313.5,254.5C 318.5,254.5 323.5,254.5 328.5,254.5C 326.776,263.84 323.942,272.84 320,281.5C 315.263,282.469 310.43,282.803 305.5,282.5C 306.616,277.322 308.616,272.489 311.5,268C 294.833,267.333 278.167,267.333 261.5,268C 264.384,272.489 266.384,277.322 267.5,282.5C 263.154,282.666 258.821,282.499 254.5,282C 251.401,278.407 249.234,274.241 248,269.5C 246.672,264.522 245.505,259.522 244.5,254.5C 249.5,254.5 254.5,254.5 259.5,254.5C 256.958,222.712 262.458,192.378 276,163.5C 278.934,159.288 282.101,155.288 285.5,151.5 Z M 301.5,234.5 C 301.747,237.939 301.414,241.272 300.5,244.5C 300.384,247.86 300.051,251.193 299.5,254.5C 290.833,254.5 282.167,254.5 273.5,254.5C 270.341,226.444 274.508,199.444 286,173.5C 292.64,186.379 296.973,200.045 299,214.5C 299.836,221.219 300.669,227.886 301.5,234.5 Z"/></g>
<g><path style="opacity:0.954" fill="#fcd108" d="M 230.5,175.5 C 236.342,175.502 240.509,178.169 243,183.5C 243.5,206.498 243.667,229.498 243.5,252.5C 239.167,252.5 234.833,252.5 230.5,252.5C 230.5,226.833 230.5,201.167 230.5,175.5 Z"/></g>
<g><path style="opacity:0.956" fill="#fdd107" d="M 339.5,175.5 C 340.5,175.5 341.5,175.5 342.5,175.5C 342.5,201.167 342.5,226.833 342.5,252.5C 338.167,252.5 333.833,252.5 329.5,252.5C 329.333,229.498 329.5,206.498 330,183.5C 332.161,179.495 335.328,176.829 339.5,175.5 Z"/></g>
<g><path style="opacity:1" fill="#f2d029" d="M 301.5,234.5 C 302.16,235.964 302.493,237.631 302.5,239.5C 302.444,241.64 301.777,243.306 300.5,244.5C 301.414,241.272 301.747,237.939 301.5,234.5 Z"/></g>
<g><path style="opacity:0.886" fill="#fbd10f" d="M 345.5,302.5 C 347.833,302.5 350.167,302.5 352.5,302.5C 352.78,306.225 354.78,307.392 358.5,306C 360.164,302.864 362.831,301.697 366.5,302.5C 366.975,309.61 363.642,312.61 356.5,311.5C 349.469,312.461 345.803,309.461 345.5,302.5 Z"/></g>
<g><path style="opacity:0.906" fill="#fcd108" d="M 320.5,311.5 C 322.5,311.5 324.5,311.5 326.5,311.5C 326.34,313.199 326.506,314.866 327,316.5C 328.667,315.5 330.333,314.5 332,313.5C 335.687,317.101 335.187,319.934 330.5,322C 335.408,323.963 335.742,326.463 331.5,329.5C 327.602,326.31 325.935,327.31 326.5,332.5C 324.5,332.5 322.5,332.5 320.5,332.5C 321.037,327.564 319.537,326.564 316,329.5C 311.095,326.108 311.595,323.608 317.5,322C 311.364,320.217 310.864,317.384 316,313.5C 319.83,318.158 321.33,317.491 320.5,311.5 Z"/></g>
<g><path style="opacity:0.69" fill="#f1ce32" d="M 287.5,314.5 C 283.958,314.187 280.625,314.521 277.5,315.5C 276.957,315.44 276.624,315.107 276.5,314.5C 280.315,313.192 283.981,313.192 287.5,314.5 Z"/></g>
<g><path style="opacity:0.753" fill="#efce36" d="M 300.5,314.5 C 304.019,313.192 307.685,313.192 311.5,314.5C 311.376,315.107 311.043,315.44 310.5,315.5C 307.375,314.521 304.042,314.187 300.5,314.5 Z"/></g>
<g><path style="opacity:0.983" fill="#fdd104" d="M 206.5,314.5 C 206.5,318.833 206.5,323.167 206.5,327.5C 211.833,327.5 217.167,327.5 222.5,327.5C 222.5,323.167 222.5,318.833 222.5,314.5C 225.167,314.5 227.833,314.5 230.5,314.5C 230.5,326.5 230.5,338.5 230.5,350.5C 227.833,350.5 225.167,350.5 222.5,350.5C 222.5,345.5 222.5,340.5 222.5,335.5C 217.167,335.5 211.833,335.5 206.5,335.5C 206.5,340.5 206.5,345.5 206.5,350.5C 203.833,350.5 201.167,350.5 198.5,350.5C 198.5,338.5 198.5,326.5 198.5,314.5C 201.167,314.5 203.833,314.5 206.5,314.5 Z"/></g>
<g><path style="opacity:0.961" fill="#fdd107" d="M 277.5,315.5 C 280.625,314.521 283.958,314.187 287.5,314.5C 289.645,317.433 291.812,320.433 294,323.5C 296.188,320.433 298.355,317.433 300.5,314.5C 304.042,314.187 307.375,314.521 310.5,315.5C 307.296,320.74 303.962,325.907 300.5,331C 304.369,337.235 308.369,343.402 312.5,349.5C 308.878,350.659 305.211,350.825 301.5,350C 298.877,346.588 296.377,343.088 294,339.5C 291.623,343.088 289.123,346.588 286.5,350C 280.167,350.667 273.833,350.667 267.5,350C 266.601,347.808 265.601,345.642 264.5,343.5C 259.198,342.337 253.864,342.171 248.5,343C 246.779,349.945 242.446,352.111 235.5,349.5C 240.833,337.833 246.167,326.167 251.5,314.5C 254.833,313.167 258.167,313.167 261.5,314.5C 266.577,325.577 271.744,336.577 277,347.5C 280.63,342.403 284.13,337.236 287.5,332C 284.288,326.405 280.954,320.905 277.5,315.5 Z M 255.5,324.5 C 258.119,327.562 260.119,331.062 261.5,335C 258.167,335.667 254.833,335.667 251.5,335C 253.33,331.676 254.663,328.176 255.5,324.5 Z"/></g>
<g><path style="opacity:0.933" fill="#fdd104" d="M 364.5,314.5 C 367.167,314.5 369.833,314.5 372.5,314.5C 372.5,326.5 372.5,338.5 372.5,350.5C 369.833,350.5 367.167,350.5 364.5,350.5C 364.666,343.159 364.5,335.826 364,328.5C 358.833,335.667 353.667,342.833 348.5,350C 345.183,350.498 341.85,350.665 338.5,350.5C 338.5,338.167 338.5,325.833 338.5,313.5C 341.833,313.5 345.167,313.5 348.5,313.5C 348.334,320.508 348.5,327.508 349,334.5C 353.945,327.584 359.111,320.917 364.5,314.5 Z"/></g>
<g><path style="opacity:0.753" fill="#f3cd31" d="M 364.5,314.5 C 367.287,313.523 370.287,313.19 373.5,313.5C 373.829,326.011 373.495,338.345 372.5,350.5C 372.5,338.5 372.5,326.5 372.5,314.5C 369.833,314.5 367.167,314.5 364.5,314.5 Z"/></g>
<g><path style="opacity:1" fill="#eed032" d="M 206.5,314.5 C 203.833,314.5 201.167,314.5 198.5,314.5C 198.5,326.5 198.5,338.5 198.5,350.5C 197.505,338.345 197.171,326.011 197.5,313.5C 200.713,313.19 203.713,313.523 206.5,314.5 Z"/></g>
<g><path style="opacity:0.753" fill="#f1cf32" d="M 222.5,314.5 C 225.287,313.523 228.287,313.19 231.5,313.5C 231.829,326.011 231.495,338.345 230.5,350.5C 230.5,338.5 230.5,326.5 230.5,314.5C 227.833,314.5 225.167,314.5 222.5,314.5 Z"/></g>
</svg>
