<?xml version="1.0" standalone="no"?>
<!DOCTYPE svg PUBLIC "-//W3C//DTD SVG 20010904//EN"
 "http://www.w3.org/TR/2001/REC-SVG-20010904/DTD/svg10.dtd">
<svg version="1.0" xmlns="http://www.w3.org/2000/svg"
 width="1024.000000pt" height="891.000000pt" viewBox="0 0 1024.000000 891.000000"
 preserveAspectRatio="xMidYMid meet">

<g transform="translate(0.000000,891.000000) scale(0.100000,-0.100000)"
fill="#F5F5F5" stroke="none">
<path d="M4834 8901 c-112 -19 -232 -119 -275 -229 -21 -52 -23 -72 -22 -248
0 -207 4 -240 31 -248 23 -8 136 -252 156 -336 31 -132 31 -124 -11 -157 -79
-63 -270 -181 -319 -197 -99 -33 -227 -129 -279 -211 -50 -77 -67 -151 -72
-310 -7 -234 -15 -359 -23 -370 -9 -11 -48 -130 -61 -185 -4 -19 -19 -82 -32
-140 -14 -58 -34 -128 -45 -157 -12 -28 -28 -79 -37 -113 -10 -39 -31 -82 -55
-114 -34 -45 -130 -224 -130 -242 0 -4 -43 -96 -95 -205 -52 -108 -95 -203
-95 -211 0 -28 -79 -177 -114 -214 -20 -21 -36 -45 -36 -54 0 -8 -11 -34 -24
-57 -34 -58 -81 -185 -100 -268 -10 -38 -25 -99 -35 -135 -54 -192 -58 -238
-42 -399 6 -62 11 -77 32 -95 14 -11 42 -46 62 -76 70 -107 175 -194 283 -236
38 -15 75 -19 164 -19 128 0 174 12 269 72 29 19 54 33 55 31 13 -18 31 -202
35 -363 l6 -200 45 -23 c24 -12 50 -28 56 -35 17 -17 33 -316 29 -557 -3 -193
1 -329 26 -875 12 -280 12 -281 -10 -345 -12 -35 -35 -79 -52 -97 -16 -19 -38
-52 -50 -75 -23 -46 -184 -262 -216 -290 -35 -32 -202 -100 -313 -128 -86 -22
-90 -28 -90 -134 0 -63 4 -97 13 -104 32 -26 315 -57 434 -47 81 7 205 31 288
56 22 6 96 13 165 14 136 3 206 13 290 42 l55 19 -3 120 c-2 65 -7 167 -12
226 -7 96 -11 111 -39 152 -52 76 -61 106 -61 213 1 176 42 658 69 806 6 31
15 83 21 115 12 66 12 302 1 382 -8 52 8 147 39 246 6 17 10 38 10 47 0 39 23
67 59 72 84 13 151 30 231 57 47 16 94 32 105 36 61 17 79 37 92 98 7 32 12
71 13 87 0 15 4 27 8 27 8 0 74 -89 170 -228 20 -30 46 -53 71 -64 34 -14 44
-27 71 -85 107 -226 160 -384 160 -470 0 -94 75 -514 120 -670 10 -38 122
-589 135 -670 6 -38 2 -51 -41 -130 l-48 -88 -6 -155 c-5 -110 -11 -169 -24
-204 -30 -81 -81 -188 -120 -249 -31 -48 -38 -71 -46 -140 -8 -70 -8 -84 6
-94 8 -6 66 -24 127 -39 194 -48 429 -36 519 28 67 47 94 211 91 566 -2 288
-2 287 -81 325 l-47 22 -3 130 c-2 72 1 204 8 295 6 91 17 262 25 380 20 292
20 521 -1 612 -18 79 -58 180 -99 254 -16 27 -46 83 -68 124 l-39 75 6 135 c3
74 7 143 9 154 4 20 41 45 68 46 8 0 25 9 38 21 21 19 21 22 7 44 -17 25 -55
136 -76 220 -15 57 -26 158 -39 360 -5 77 -14 155 -20 173 -6 19 -7 69 -4 117
5 65 2 93 -11 125 -13 32 -16 72 -14 193 1 134 -2 164 -24 252 -14 55 -31 143
-38 195 -7 52 -23 146 -36 209 -34 162 -33 202 12 262 20 27 40 49 44 49 5 0
24 31 43 70 29 61 50 84 158 181 161 145 736 688 816 772 34 35 64 75 67 88
11 57 16 208 6 214 -5 3 -42 50 -81 103 -136 184 -341 365 -497 440 -70 33
-75 38 -138 132 -124 187 -200 242 -439 317 -60 19 -151 54 -201 79 -97 47
-164 65 -314 84 -100 13 -148 34 -168 72 -19 38 -31 109 -32 185 0 70 1 73 29
87 59 31 89 117 70 204 -14 65 -24 82 -49 82 -15 0 -19 12 -25 63 -14 129
-103 250 -218 302 -58 25 -159 37 -223 26z m1158 -1905 c18 -8 72 -43 118 -78
208 -157 325 -218 488 -258 23 -6 42 -13 42 -17 0 -13 -93 -194 -140 -273 -77
-129 -146 -213 -282 -346 -111 -109 -293 -264 -309 -264 -15 0 -19 75 -13 235
5 133 3 189 -10 259 -20 109 -20 206 -1 312 13 76 13 87 -5 150 -39 134 -36
237 7 279 18 19 61 19 105 1z m-1681 -1127 c1 -133 -2 -162 -20 -212 -12 -32
-28 -90 -36 -128 -16 -73 -10 -134 26 -275 6 -23 11 -68 12 -100 1 -59 -3 -70
-68 -194 -38 -71 -78 -234 -87 -350 -10 -135 -18 -190 -28 -190 -5 0 -11 8
-15 18 -11 37 -149 167 -207 195 -57 28 -168 56 -223 57 -28 0 -33 6 -78 106
-33 71 -47 113 -43 128 12 46 97 144 310 354 119 118 227 230 240 250 31 50
116 259 116 286 0 12 11 38 25 57 14 19 33 59 42 89 30 106 33 98 34 -91z"/>
</g>
</svg>
